<svg xmlns="http://www.w3.org/2000/svg" style="margin:auto;background:#212121;display:block;z-index:1;position:relative" width="600" height="2000" preserveAspectRatio="xMidYMid" viewBox="0 0 600 2000"><path d="M-100 768.37c15.23-32.41 15.87-27.93 25.81-27.93s16.18-9.66 25.8-9.66 16.54 15.65 25.81 15.65 16.08-17.31 25.81-17.31 13.08-6.67 25.8-6.67 13.48 16.1 25.81 16.1 16.73-1.8 25.81-1.8 15.4-6.9 25.8-6.9 15.15 6.31 25.81 6.31 13.85-3.19 25.8-3.19 14.69 2.2 25.81 2.2 13.05 11.75 25.81 11.75 17.63 6.98 25.8 6.98 14.32-9.06 25.81-9.06 16.62-24.23 25.81-24.23 17.78 35.86 25.8 35.86 17.51-14.28 25.81-14.28 17.28-12.53 25.81-12.53 14.43 31.17 25.8 31.17 15.14-39.73 25.81-39.73 13.91 31.67 25.81 31.67 17.23-3.37 25.8-3.37 16.37 12.47 25.81 12.47 14.57-27.65 25.8-27.65 13.65 31.61 25.81 31.61 15.65-38.69 25.81-38.69 12.99-4.4 25.8-4.4 16.47 8.6 25.81 8.6 16.4 30.22 25.81 30.22 16.17-10.68 25.8-10.68 16.53-9.45 25.81-9.45 13.58-1.88 25.81-1.88L700 2000h-800Z" fill="#212121"><animate attributeName="d" dur="13.333333333333334s" repeatCount="indefinite" values="M-100 768.37C-84.77 735.96 -84.13 740.44 -74.19 740.44S-58.01 730.78 -48.39 730.78S-31.85 746.43 -22.58 746.43S-6.5 729.12 3.23 729.12S16.31 722.45 29.03 722.45S42.51 738.55 54.84 738.55S71.57 736.75 80.65 736.75S96.05 729.85 106.45 729.85S121.6 736.16 132.26 736.16S146.11 732.97 158.06 732.97S172.75 735.17 183.87 735.17S196.92 746.92 209.68 746.92S227.31 753.9 235.48 753.9S249.8 744.84 261.29 744.84S277.91 720.61 287.1 720.61S304.88 756.47 312.9 756.47S330.41 742.19 338.71 742.19S355.99 729.66 364.52 729.66S378.95 760.83 390.32 760.83S405.46 721.1 416.13 721.1S430.04 752.77 441.94 752.77S459.17 749.4 467.74 749.4S484.11 761.87 493.55 761.87S508.12 734.22 519.35 734.22S533 765.83 545.16 765.83S560.81 727.14 570.97 727.14S583.96 722.74 596.77 722.74S613.24 731.34 622.58 731.34S638.98 761.56 648.39 761.56S664.56 750.88 674.19 750.88S690.72 741.43 700 741.43S713.58 739.55 725.81 739.55L700 2000 L-100 2000 Z;M-100 745.5C-82.84 720.06 -86.71 748.65 -74.19 748.65S-59.98 746.96 -48.39 746.96S-33.64 744.03 -22.58 744.03S-6.25 724.98 3.23 724.98S19.53 741.32 29.03 741.32S44.21 722.2 54.84 722.2S71.55 728.09 80.65 728.09S94.65 767.36 106.45 767.36S120.72 768.57 132.26 768.57S146.29 757.31 158.06 757.31S174.47 764.22 183.87 764.22S198.94 747.12 209.68 747.12S226.51 722.24 235.48 722.24S252.04 753.92 261.29 753.92S277.71 728.32 287.1 728.32S300.31 766.24 312.9 766.24S328.08 756.46 338.71 756.46S354.26 730.34 364.52 730.34S377.52 750.55 390.32 750.55S406.46 739.11 416.13 739.11S433.64 766.8 441.94 766.8S457.64 729.58 467.74 729.58S482.01 733.17 493.55 733.17S508.14 747.47 519.35 747.47S534.53 760.17 545.16 760.17S560.91 724 570.97 724S588.27 748.29 596.77 748.29S614.01 756.72 622.58 756.72S637.85 721.53 648.39 721.53S662.42 736.27 674.19 736.27S688.98 738.3 700 738.3S717.72 735.41 725.81 735.41L700 2000 L-100 2000 Z;M-100 768.37C-84.77 735.96 -84.13 740.44 -74.19 740.44S-58.01 730.78 -48.39 730.78S-31.85 746.43 -22.58 746.43S-6.5 729.12 3.23 729.12S16.31 722.45 29.03 722.45S42.51 738.55 54.84 738.55S71.57 736.75 80.65 736.75S96.05 729.85 106.45 729.85S121.6 736.16 132.26 736.16S146.11 732.97 158.06 732.97S172.75 735.17 183.87 735.17S196.92 746.92 209.68 746.92S227.31 753.9 235.48 753.9S249.8 744.84 261.29 744.84S277.91 720.61 287.1 720.61S304.88 756.47 312.9 756.47S330.41 742.19 338.71 742.19S355.99 729.66 364.52 729.66S378.95 760.83 390.32 760.83S405.46 721.1 416.13 721.1S430.04 752.77 441.94 752.77S459.17 749.4 467.74 749.4S484.11 761.87 493.55 761.87S508.12 734.22 519.35 734.22S533 765.83 545.16 765.83S560.81 727.14 570.97 727.14S583.96 722.74 596.77 722.74S613.24 731.34 622.58 731.34S638.98 761.56 648.39 761.56S664.56 750.88 674.19 750.88S690.72 741.43 700 741.43S713.58 739.55 725.81 739.55L700 2000 L-100 2000 Z"/><animateTransform attributeName="transform" type="translate" dur="13.333333333333334s" begin="0s" repeatCount="indefinite" values="0;10;0" calcMode="spline" keySplines="0.3 0 0.7 1;0.3 0 0.7 1"/></path><path d="M-100 820.29c17.72 3.8 14.96-.59 26.49-.59s13.38-41.05 26.49-41.05 14.27 43.45 26.49 43.45 13.26-22.96 26.49-22.96 15.58 11.33 26.49 11.33 15.4 10.69 26.49 10.69 17.01-26.77 26.49-26.77 16.39 8.68 26.49 8.68 17.05 7.24 26.49 7.24 13.29-2.77 26.49-2.77 16.19-31.23 26.49-31.23 15.19 49.79 26.49 49.79 15.22-51.72 26.49-51.72 16.64-2.08 26.49-2.08 17.28 39.66 26.49 39.66 14.77-15.62 26.49-15.62 17.73 19.4 26.49 19.4 15.24-17.02 26.49-17.02 16.79 24.79 26.49 24.79 16.96-4.69 26.49-4.69 13.34-11.99 26.49-11.99 13.76-3.75 26.49-3.75 17.56 16.05 26.49 16.05 17.25-45.15 26.49-45.15 13.4 29.49 26.49 29.49 16.47-11.66 26.49-11.66 14.98-13.55 26.49-13.55 14.48 24.21 26.49 24.21 15.74 18.02 26.49 18.02 13.93-15.93 26.49-15.93 17.32.76 26.49.76L700 2000h-800Z" fill="#282828"><animate attributeName="d" dur="12s" repeatCount="indefinite" values="M-100 820.29C-82.28 824.09 -85.04 819.7 -73.51 819.7S-60.13 778.65 -47.02 778.65S-32.75 822.1 -20.53 822.1S-7.27 799.14 5.96 799.14S21.54 810.47 32.45 810.47S47.85 821.16 58.94 821.16S75.95 794.39 85.43 794.39S101.82 803.07 111.92 803.07S128.97 810.31 138.41 810.31S151.7 807.54 164.9 807.54S181.09 776.31 191.39 776.31S206.58 826.1 217.88 826.1S233.1 774.38 244.37 774.38S261.01 772.3 270.86 772.3S288.14 811.96 297.35 811.96S312.12 796.34 323.84 796.34S341.57 815.74 350.33 815.74S365.57 798.72 376.82 798.72S393.61 823.51 403.31 823.51S420.27 818.82 429.8 818.82S443.14 806.83 456.29 806.83S470.05 803.08 482.78 803.08S500.34 819.13 509.27 819.13S526.52 773.98 535.76 773.98S549.16 803.47 562.25 803.47S578.72 791.81 588.74 791.81S603.72 778.26 615.23 778.26S629.71 802.47 641.72 802.47S657.46 820.49 668.21 820.49S682.14 804.56 694.7 804.56S712.02 805.32 721.19 805.32L700 2000 L-100 2000 Z;M-100 781.43C-83.87 775.37 -82.43 789.21 -73.51 789.21S-60.13 782.87 -47.02 782.87S-31.22 805.12 -20.53 805.12S-3.72 817.57 5.96 817.57S21.44 820.78 32.45 820.78S46.34 780.65 58.94 780.65S74.23 807.92 85.43 807.92S100.04 817.62 111.92 817.62S129.88 803.93 138.41 803.93S155.42 796.13 164.9 796.13S181.65 812.42 191.39 812.42S205.63 795.05 217.88 795.05S233.55 798.35 244.37 798.35S257.77 809.52 270.86 809.52S284.42 812.66 297.35 812.66S313.28 809.99 323.84 809.99S338.65 776.12 350.33 776.12S368.5 797.24 376.82 797.24S392.21 800.08 403.31 800.08S420.23 816.56 429.8 816.56S447 782.2 456.29 782.2S473.69 797.37 482.78 797.37S496.74 788.44 509.27 788.44S525.86 787.55 535.76 787.55S552.7 815.15 562.25 815.15S577.16 810.88 588.74 810.88S603.8 784.03 615.23 784.03S629.33 801.88 641.72 801.88S657.76 809.82 668.21 809.82S684.62 783.81 694.7 783.81S709.71 788.75 721.19 788.75L700 2000 L-100 2000 Z;M-100 820.29C-82.28 824.09 -85.04 819.7 -73.51 819.7S-60.13 778.65 -47.02 778.65S-32.75 822.1 -20.53 822.1S-7.27 799.14 5.96 799.14S21.54 810.47 32.45 810.47S47.85 821.16 58.94 821.16S75.95 794.39 85.43 794.39S101.82 803.07 111.92 803.07S128.97 810.31 138.41 810.31S151.7 807.54 164.9 807.54S181.09 776.31 191.39 776.31S206.58 826.1 217.88 826.1S233.1 774.38 244.37 774.38S261.01 772.3 270.86 772.3S288.14 811.96 297.35 811.96S312.12 796.34 323.84 796.34S341.57 815.74 350.33 815.74S365.57 798.72 376.82 798.72S393.61 823.51 403.31 823.51S420.27 818.82 429.8 818.82S443.14 806.83 456.29 806.83S470.05 803.08 482.78 803.08S500.34 819.13 509.27 819.13S526.52 773.98 535.76 773.98S549.16 803.47 562.25 803.47S578.72 791.81 588.74 791.81S603.72 778.26 615.23 778.26S629.71 802.47 641.72 802.47S657.46 820.49 668.21 820.49S682.14 804.56 694.7 804.56S712.02 805.32 721.19 805.32L700 2000 L-100 2000 Z"/><animateTransform attributeName="transform" type="translate" dur="12s" begin="-1.2s" repeatCount="indefinite" values="0;10;0" calcMode="spline" keySplines="0.3 0 0.7 1;0.3 0 0.7 1"/></path><path d="M-100 852.33c15.68-12.72 14.13 37.7 27.21 37.7s13.87-38.97 27.21-38.97 15.77 7.85 27.21 7.85 16.85 3.45 27.21 3.45 15.65 6.91 27.21 6.91 17.78-39.69 27.22-39.69 15.79 20.41 27.21 20.41 15.5-19.19 27.21-19.19 15.02 42.75 27.21 42.75 16.18 8.5 27.21 8.5 16.38-3.28 27.21-3.28 18.32-38.17 27.21-38.17 18.07 33.86 27.21 33.86S271.8 850 280.95 850s16.28 3.61 27.21 3.61 15.83-22.1 27.21-22.1 14.46.38 27.22.38 17.68 3.63 27.21 3.63 16.23 28.58 27.21 28.58 16.14-6.64 27.21-6.64 14.71-.25 27.21-.25 15.61 5.91 27.21 5.91 15.72-14.92 27.21-14.92 15.46 23.04 27.21 23.04 15.7 20.73 27.21 20.73 14.57-27.73 27.21-27.73 15.35-22.08 27.21-22.08 17.47-14.05 27.21-14.05 15.75 47.71 27.22 47.71 17.32-35.54 27.21-35.54L700 2000h-800Z" fill="#2e2e2e"><animate attributeName="d" dur="10.666666666666666s" repeatCount="indefinite" values="M-100 852.33C-84.32 839.61 -85.87 890.03 -72.79 890.03S-58.92 851.06 -45.58 851.06S-29.81 858.91 -18.37 858.91S-1.52 862.36 8.84 862.36S24.49 869.27 36.05 869.27S53.83 829.58 63.27 829.58S79.06 849.99 90.48 849.99S105.98 830.8 117.69 830.8S132.71 873.55 144.9 873.55S161.08 882.05 172.11 882.05S188.49 878.77 199.32 878.77S217.64 840.6 226.53 840.6S244.6 874.46 253.74 874.46S271.8 850 280.95 850S297.23 853.61 308.16 853.61S323.99 831.51 335.37 831.51S349.83 831.89 362.59 831.89S380.27 835.52 389.8 835.52S406.03 864.1 417.01 864.1S433.15 857.46 444.22 857.46S458.93 857.21 471.43 857.21S487.04 863.12 498.64 863.12S514.36 848.2 525.85 848.2S541.31 871.24 553.06 871.24S568.76 891.97 580.27 891.97S594.84 864.24 607.48 864.24S622.83 842.16 634.69 842.16S652.16 828.11 661.9 828.11S677.65 875.82 689.12 875.82S706.44 840.28 716.33 840.28L700 2000 L-100 2000 Z;M-100 870.84C-83 848.77 -85.43 854.4 -72.79 854.4S-54.87 856.88 -45.58 856.88S-30.52 849.11 -18.37 849.11S-1.83 827.09 8.84 827.09S27.21 847.92 36.05 847.92S50.49 854.36 63.27 854.36S77.39 858.06 90.48 858.06S104.48 865.17 117.69 865.17S131.82 883.01 144.9 883.01S161.4 862.62 172.11 862.62S189.04 865.34 199.32 865.34S216.98 831.17 226.53 831.17S241.56 854.38 253.74 854.38S268.16 856.34 280.95 856.34S295.94 837.04 308.16 837.04S323.8 870.39 335.37 870.39S352.78 887.28 362.59 887.28S379.04 864.16 389.8 864.16S403.62 868.14 417.01 868.14S432.31 835.4 444.22 835.4S461.9 857.63 471.43 857.63S487.6 867.36 498.64 867.36S512.33 880.33 525.85 880.33S543.34 869.09 553.06 869.09S570.95 888.98 580.27 888.98S594.64 873.57 607.48 873.57S623.55 873.48 634.69 873.48S648.98 856.04 661.9 856.04S678.1 884.51 689.12 884.51S702.84 826.9 716.33 826.9L700 2000 L-100 2000 Z;M-100 852.33C-84.32 839.61 -85.87 890.03 -72.79 890.03S-58.92 851.06 -45.58 851.06S-29.81 858.91 -18.37 858.91S-1.52 862.36 8.84 862.36S24.49 869.27 36.05 869.27S53.83 829.58 63.27 829.58S79.06 849.99 90.48 849.99S105.98 830.8 117.69 830.8S132.71 873.55 144.9 873.55S161.08 882.05 172.11 882.05S188.49 878.77 199.32 878.77S217.64 840.6 226.53 840.6S244.6 874.46 253.74 874.46S271.8 850 280.95 850S297.23 853.61 308.16 853.61S323.99 831.51 335.37 831.51S349.83 831.89 362.59 831.89S380.27 835.52 389.8 835.52S406.03 864.1 417.01 864.1S433.15 857.46 444.22 857.46S458.93 857.21 471.43 857.21S487.04 863.12 498.64 863.12S514.36 848.2 525.85 848.2S541.31 871.24 553.06 871.24S568.76 891.97 580.27 891.97S594.84 864.24 607.48 864.24S622.83 842.16 634.69 842.16S652.16 828.11 661.9 828.11S677.65 875.82 689.12 875.82S706.44 840.28 716.33 840.28L700 2000 L-100 2000 Z"/><animateTransform attributeName="transform" type="translate" dur="10.666666666666666s" begin="-2.1333333333333333s" repeatCount="indefinite" values="0;10;0" calcMode="spline" keySplines="0.3 0 0.7 1;0.3 0 0.7 1"/></path><path d="M-100 906.76c15.52 8.59 18.3 32.5 27.97 32.5s15.42-57.83 27.97-57.83 18.11 5.52 27.98 5.52 14.75 62.3 27.97 62.3 18.47-7.4 27.97-7.4 17.09-19.93 27.97-19.93 18.5-4.65 27.97-4.65 15.83-15.64 27.98-15.64 16.54 14.39 27.97 14.39 16.25-30.79 27.97-30.79 15.2 54.65 27.97 54.65 18.78-16.35 27.97-16.35 18.84-41.05 27.98-41.05 15.82 32.01 27.97 32.01 18.35-8.06 27.97-8.06 17.42-23.2 27.97-23.2 16.11 27.71 27.97 27.71 17.46-2.95 27.98-2.95 14.54 9.44 27.97 9.44 14.11-1.07 27.97-1.07 18.61-.75 27.97-.75 18.63-31.86 27.97-31.86 15.34 33.94 27.98 33.94 14.35-8.39 27.97-8.39 16.86 33.87 27.97 33.87 14.1-56.07 27.97-56.07 16.12 52.83 27.97 52.83 17.29-39.05 27.98-39.05 17.86 8.17 27.97 8.17L700 2000h-800Z" fill="#353535"><animate attributeName="d" dur="9.333333333333334s" repeatCount="indefinite" values="M-100 906.76C-84.48 915.35 -81.7 939.26 -72.03 939.26S-56.61 881.43 -44.06 881.43S-25.95 886.95 -16.08 886.95S-1.33 949.25 11.89 949.25S30.36 941.85 39.86 941.85S56.95 921.92 67.83 921.92S86.33 917.27 95.8 917.27S111.63 901.63 123.78 901.63S140.32 916.02 151.75 916.02S168 885.23 179.72 885.23S194.92 939.88 207.69 939.88S226.47 923.53 235.66 923.53S254.5 882.48 263.64 882.48S279.46 914.49 291.61 914.49S309.96 906.43 319.58 906.43S337 883.23 347.55 883.23S363.66 910.94 375.52 910.94S392.98 907.99 403.5 907.99S418.04 917.43 431.47 917.43S445.58 916.36 459.44 916.36S478.05 915.61 487.41 915.61S506.04 883.75 515.38 883.75S530.72 917.69 543.36 917.69S557.71 909.3 571.33 909.3S588.19 943.17 599.3 943.17S613.4 887.1 627.27 887.1S643.39 939.93 655.24 939.93S672.53 900.88 683.22 900.88S701.08 909.05 711.19 909.05L700 2000 L-100 2000 Z;M-100 898.39C-85.77 891.14 -85.65 945.98 -72.03 945.98S-57.08 932.73 -44.06 932.73S-26.62 902.62 -16.08 902.62S-1.83 903.56 11.89 903.56S26.71 953.91 39.86 953.91S57.02 892.78 67.83 892.78S83.24 928.31 95.8 928.31S114.09 923.36 123.78 923.36S139.94 922.76 151.75 922.76S166.75 900.27 179.72 900.27S197.75 904.95 207.69 904.95S223.45 906.58 235.66 906.58S249.92 926.31 263.64 926.31S281.59 910.44 291.61 910.44S308.3 928.01 319.58 928.01S337.67 919.4 347.55 919.4S363.86 940.16 375.52 940.16S393.05 907.07 403.5 907.07S419.57 926.93 431.47 926.93S449.08 916.2 459.44 916.2S476.76 906.02 487.41 906.02S502.51 922.43 515.38 922.43S533.16 953.49 543.36 953.49S561.03 885.59 571.33 885.59S589.71 924.13 599.3 924.13S613.98 898.62 627.27 898.62S644.06 950.31 655.24 950.31S671.39 907.36 683.22 907.36S700.62 901.14 711.19 901.14L700 2000 L-100 2000 Z;M-100 906.76C-84.48 915.35 -81.7 939.26 -72.03 939.26S-56.61 881.43 -44.06 881.43S-25.95 886.95 -16.08 886.95S-1.33 949.25 11.89 949.25S30.36 941.85 39.86 941.85S56.95 921.92 67.83 921.92S86.33 917.27 95.8 917.27S111.63 901.63 123.78 901.63S140.32 916.02 151.75 916.02S168 885.23 179.72 885.23S194.92 939.88 207.69 939.88S226.47 923.53 235.66 923.53S254.5 882.48 263.64 882.48S279.46 914.49 291.61 914.49S309.96 906.43 319.58 906.43S337 883.23 347.55 883.23S363.66 910.94 375.52 910.94S392.98 907.99 403.5 907.99S418.04 917.43 431.47 917.43S445.58 916.36 459.44 916.36S478.05 915.61 487.41 915.61S506.04 883.75 515.38 883.75S530.72 917.69 543.36 917.69S557.71 909.3 571.33 909.3S588.19 943.17 599.3 943.17S613.4 887.1 627.27 887.1S643.39 939.93 655.24 939.93S672.53 900.88 683.22 900.88S701.08 909.05 711.19 909.05L700 2000 L-100 2000 Z"/><animateTransform attributeName="transform" type="translate" dur="9.333333333333334s" begin="-2.8s" repeatCount="indefinite" values="0;10;0" calcMode="spline" keySplines="0.3 0 0.7 1;0.3 0 0.7 1"/></path><path d="M-100 943.79c16.52-10.28 16.39 67.91 28.78 67.91s16.1-50.24 28.77-50.24 15.43 51 28.78 51 16.13-53.12 28.78-53.12 17.45.16 28.77.16 15.23-12.15 28.78-12.15 18.66 52.35 28.78 52.35 17.11-33.15 28.78-33.15S148.7 1002 158.99 1002s18.37-56.82 28.78-56.82 18.62 50.67 28.78 50.67 16.21-21.93 28.77-21.93 15.8 22.36 28.78 22.36 15.81-24.37 28.78-24.37 15.68-1.19 28.77-1.19 17.53-12.69 28.78-12.69 18.16-13.88 28.78-13.88 14.87 12.09 28.78 12.09 17.37 52.91 28.77 52.91 16.77-12.63 28.78-12.63 14.84-5.64 28.78-5.64 15.87-61.06 28.77-61.06 16.66 60.01 28.78 60.01 16.99-46.75 28.78-46.75 14.78 71.49 28.77 71.49 14.81-47.29 28.78-47.29 14.59 27.24 28.78 27.24 18.02-22.04 28.78-22.04L700 2000h-800Z" fill="#3d3d3d"><animate attributeName="d" dur="8s" repeatCount="indefinite" values="M-100 943.79C-83.48 933.51 -83.61 1011.7 -71.22 1011.7S-55.12 961.46 -42.45 961.46S-27.02 1012.46 -13.67 1012.46S2.46 959.34 15.11 959.34S32.56 959.5 43.88 959.5S59.11 947.35 72.66 947.35S91.32 999.7 101.44 999.7S118.55 966.55 130.22 966.55S148.7 1002 158.99 1002S177.36 945.18 187.77 945.18S206.39 995.85 216.55 995.85S232.76 973.92 245.32 973.92S261.12 996.28 274.1 996.28S289.91 971.91 302.88 971.91S318.56 970.72 331.65 970.72S349.18 958.03 360.43 958.03S378.59 944.15 389.21 944.15S404.08 956.24 417.99 956.24S435.36 1009.15 446.76 1009.15S463.53 996.52 475.54 996.52S490.38 990.88 504.32 990.88S520.19 929.82 533.09 929.82S549.75 989.83 561.87 989.83S578.86 943.08 590.65 943.08S605.43 1014.57 619.42 1014.57S634.23 967.28 648.2 967.28S662.79 994.52 676.98 994.52S695 972.48 705.76 972.48L700 2000 L-100 2000 Z;M-100 952.26C-84.68 973.33 -85.59 961.08 -71.22 961.08S-56 974.11 -42.45 974.11S-24.79 937.14 -13.67 937.14S0.94 966.85 15.11 966.85S31.9 981.73 43.88 981.73S59.35 977.44 72.66 977.44S91.49 985.59 101.44 985.59S119.24 972.77 130.22 972.77S146.2 998.34 158.99 998.34S175.84 954.27 187.77 954.27S204.52 1003.96 216.55 1003.96S232.49 975.14 245.32 975.14S261.11 983.97 274.1 983.97S290.22 966.31 302.88 966.31S317.33 1006.08 331.65 1006.08S349.55 988.6 360.43 988.6S374.87 995.45 389.21 995.45S405.22 973.62 417.99 973.62S433.84 936.37 446.76 936.37S466.14 992.66 475.54 992.66S494.72 988.27 504.32 988.27S520.78 942.21 533.09 942.21S549.53 998.67 561.87 998.67S577.43 970.65 590.65 970.65S606.71 981.3 619.42 981.3S633.83 959.18 648.2 959.18S667.21 1005.04 676.98 1005.04S692.22 943.73 705.76 943.73L700 2000 L-100 2000 Z;M-100 943.79C-83.48 933.51 -83.61 1011.7 -71.22 1011.7S-55.12 961.46 -42.45 961.46S-27.02 1012.46 -13.67 1012.46S2.46 959.34 15.11 959.34S32.56 959.5 43.88 959.5S59.11 947.35 72.66 947.35S91.32 999.7 101.44 999.7S118.55 966.55 130.22 966.55S148.7 1002 158.99 1002S177.36 945.18 187.77 945.18S206.39 995.85 216.55 995.85S232.76 973.92 245.32 973.92S261.12 996.28 274.1 996.28S289.91 971.91 302.88 971.91S318.56 970.72 331.65 970.72S349.18 958.03 360.43 958.03S378.59 944.15 389.21 944.15S404.08 956.24 417.99 956.24S435.36 1009.15 446.76 1009.15S463.53 996.52 475.54 996.52S490.38 990.88 504.32 990.88S520.19 929.82 533.09 929.82S549.75 989.83 561.87 989.83S578.86 943.08 590.65 943.08S605.43 1014.57 619.42 1014.57S634.23 967.28 648.2 967.28S662.79 994.52 676.98 994.52S695 972.48 705.76 972.48L700 2000 L-100 2000 Z"/><animateTransform attributeName="transform" type="translate" dur="8s" begin="-3.2s" repeatCount="indefinite" values="0;10;0" calcMode="spline" keySplines="0.3 0 0.7 1;0.3 0 0.7 1"/></path><path d="M-100 998.84c16.64 27.87 17.72 48.56 29.63 48.56s18.58-31.46 29.63-31.46 15.99-34.55 29.63-34.55 16.64 78.71 29.63 78.71 18.52-11.36 29.63-11.36 15.14-21.41 29.63-21.41 15.35 50.45 29.63 50.45 16.06-52.84 29.63-52.84 16.84 37.05 29.63 37.05 15.58-71.36 29.63-71.36 16.37 53.11 29.63 53.11 18.31.52 29.63.52 15.32-38.11 29.63-38.11 16.27-13.58 29.62-13.58 18.71-6.92 29.63-6.92 18.2 29.33 29.63 29.33 19.04 62.1 29.63 62.1 19.02-74.16 29.63-74.16 18.94 76.23 29.63 76.23 18.86-94.76 29.63-94.76 18.56 81.34 29.63 81.34 16.34-67.1 29.63-67.1 18.31-12.18 29.63-12.18 17.42 33.72 29.63 33.72 17.41 30.35 29.63 30.35 18.15-36.69 29.63-36.69 17.11 25.53 29.63 25.53 18.73-41.15 29.63-41.15L700 2000h-800Z" fill="#444"><animate attributeName="d" dur="6.666666666666667s" repeatCount="indefinite" values="M-100 998.84C-83.36 1026.71 -82.28 1047.4 -70.37 1047.4S-51.79 1015.94 -40.74 1015.94S-24.75 981.39 -11.11 981.39S5.53 1060.1 18.52 1060.1S37.04 1048.74 48.15 1048.74S63.29 1027.33 77.78 1027.33S93.13 1077.78 107.41 1077.78S123.47 1024.94 137.04 1024.94S153.88 1061.99 166.67 1061.99S182.25 990.63 196.3 990.63S212.67 1043.74 225.93 1043.74S244.24 1044.26 255.56 1044.26S270.88 1006.15 285.19 1006.15S301.46 992.57 314.81 992.57S333.52 985.65 344.44 985.65S362.64 1014.98 374.07 1014.98S393.11 1077.08 403.7 1077.08S422.72 1002.92 433.33 1002.92S452.27 1079.15 462.96 1079.15S481.82 984.39 492.59 984.39S511.15 1065.73 522.22 1065.73S538.56 998.63 551.85 998.63S570.16 986.45 581.48 986.45S598.9 1020.17 611.11 1020.17S628.52 1050.52 640.74 1050.52S658.89 1013.83 670.37 1013.83S687.48 1039.36 700 1039.36S718.73 998.21 729.63 998.21L700 2000 L-100 2000 Z;M-100 996.36C-84.72 1021.65 -81.57 1037.67 -70.37 1037.67S-53.37 985.69 -40.74 985.69S-24.08 1040.08 -11.11 1040.08S8 1020.1 18.52 1020.1S35.52 1076.59 48.15 1076.59S63.99 984.63 77.78 984.63S97.09 1044.82 107.41 1044.82S124.73 994.45 137.04 994.45S154.82 1051.37 166.67 1051.37S182.42 1010.98 196.3 1010.98S214.2 1051.78 225.93 1051.78S241.46 1010.84 255.56 1010.84S274.87 1009.61 285.19 1009.61S300.69 1040.91 314.81 1040.91S333.01 1046.4 344.44 1046.4S359.51 1028.88 374.07 1028.88S389.57 1033.1 403.7 1033.1S420.99 1015.84 433.33 1015.84S450.25 1045.83 462.96 1045.83S478.36 988.05 492.59 988.05S511.79 1074.53 522.22 1074.53S540.63 994.96 551.85 994.96S569.74 1074.81 581.48 1074.81S600.73 1064.22 611.11 1064.22S630.13 1060.13 640.74 1060.13S658.91 1025.15 670.37 1025.15S687.24 1069.31 700 1069.31S717.31 1015.54 729.63 1015.54L700 2000 L-100 2000 Z;M-100 998.84C-83.36 1026.71 -82.28 1047.4 -70.37 1047.4S-51.79 1015.94 -40.74 1015.94S-24.75 981.39 -11.11 981.39S5.53 1060.1 18.52 1060.1S37.04 1048.74 48.15 1048.74S63.29 1027.33 77.78 1027.33S93.13 1077.78 107.41 1077.78S123.47 1024.94 137.04 1024.94S153.88 1061.99 166.67 1061.99S182.25 990.63 196.3 990.63S212.67 1043.74 225.93 1043.74S244.24 1044.26 255.56 1044.26S270.88 1006.15 285.19 1006.15S301.46 992.57 314.81 992.57S333.52 985.65 344.44 985.65S362.64 1014.98 374.07 1014.98S393.11 1077.08 403.7 1077.08S422.72 1002.92 433.33 1002.92S452.27 1079.15 462.96 1079.15S481.82 984.39 492.59 984.39S511.15 1065.73 522.22 1065.73S538.56 998.63 551.85 998.63S570.16 986.45 581.48 986.45S598.9 1020.17 611.11 1020.17S628.52 1050.52 640.74 1050.52S658.89 1013.83 670.37 1013.83S687.48 1039.36 700 1039.36S718.73 998.21 729.63 998.21L700 2000 L-100 2000 Z"/><animateTransform attributeName="transform" type="translate" dur="6.666666666666667s" begin="-3.3333333333333335s" repeatCount="indefinite" values="0;10;0" calcMode="spline" keySplines="0.3 0 0.7 1;0.3 0 0.7 1"/></path><path d="M-100 1042.55c19.32 23.34 19.13 84.72 30.53 84.72s17.35-67.42 30.54-67.42 15.79 48.54 30.53 48.54 16.07-26.49 30.54-26.49 18.83 12.36 30.53 12.36 20.15-29 30.54-29 20.23 32.2 30.53 32.2 19.54-50.02 30.53-50.02 19.15 89.43 30.54 89.43 17.48-104.54 30.53-104.54 18.52 68.67 30.54 68.67 18.98-46.38 30.53-46.38 19.1 60.4 30.54 60.4 19.49 8.41 30.53 8.41 19.64-.48 30.54-.48 18.28-71.03 30.53-71.03 19.13 58.39 30.53 58.39 19.06-52.12 30.54-52.12 17.59 59.33 30.53 59.33 16-52.2 30.54-52.2 19.65 29.89 30.53 29.89 18.06-34.09 30.54-34.09 19.79 59.11 30.53 59.11 19.24-84.19 30.53-84.19 16.76 84.38 30.54 84.38 16.65-80.91 30.53-80.91 16.39 90.34 30.54 90.34L700 2000h-800Z" fill="#4b4b4b"><animate attributeName="d" dur="5.333333333333333s" repeatCount="indefinite" values="M-100 1042.55C-80.68 1065.89 -80.87 1127.27 -69.47 1127.27S-52.12 1059.85 -38.93 1059.85S-23.14 1108.39 -8.4 1108.39S7.67 1081.9 22.14 1081.9S40.97 1094.26 52.67 1094.26S72.82 1065.26 83.21 1065.26S103.44 1097.46 113.74 1097.46S133.28 1047.44 144.27 1047.44S163.42 1136.87 174.81 1136.87S192.29 1032.33 205.34 1032.33S223.86 1101 235.88 1101S254.86 1054.62 266.41 1054.62S285.51 1115.02 296.95 1115.02S316.44 1123.43 327.48 1123.43S347.12 1122.95 358.02 1122.95S376.3 1051.92 388.55 1051.92S407.68 1110.31 419.08 1110.31S438.14 1058.19 449.62 1058.19S467.21 1117.52 480.15 1117.52S496.15 1065.32 510.69 1065.32S530.34 1095.21 541.22 1095.21S559.28 1061.12 571.76 1061.12S591.55 1120.23 602.29 1120.23S621.53 1036.04 632.82 1036.04S649.58 1120.42 663.36 1120.42S680.01 1039.51 693.89 1039.51S710.28 1129.85 724.43 1129.85L700 2000 L-100 2000 Z;M-100 1119.08C-80.28 1132.45 -81.71 1109.94 -69.47 1109.94S-52.71 1068.94 -38.93 1068.94S-18.94 1108.57 -8.4 1108.57S8.76 1068.26 22.14 1068.26S40.66 1111.25 52.67 1111.25S72.04 1037.41 83.21 1037.41S103.4 1110.74 113.74 1110.74S132.89 1032.01 144.27 1032.01S160.38 1126.89 174.81 1126.89S190.58 1077.05 205.34 1077.05S224.22 1094.95 235.88 1094.95S251.71 1037.5 266.41 1037.5S283.02 1139.21 296.95 1139.21S313.88 1133.97 327.48 1133.97S346.45 1093.24 358.02 1093.24S377 1066.16 388.55 1066.16S406.28 1110.31 419.08 1110.31S435.03 1064.75 449.62 1064.75S467.21 1130.34 480.15 1130.34S495.78 1073.2 510.69 1073.2S527.56 1097.25 541.22 1097.25S560.22 1056.43 571.76 1056.43S591.5 1126.24 602.29 1126.24S617.72 1040.02 632.82 1040.02S652.94 1124.94 663.36 1124.94S680.38 1122.66 693.89 1122.66S710.63 1057.98 724.43 1057.98L700 2000 L-100 2000 Z;M-100 1042.55C-80.68 1065.89 -80.87 1127.27 -69.47 1127.27S-52.12 1059.85 -38.93 1059.85S-23.14 1108.39 -8.4 1108.39S7.67 1081.9 22.14 1081.9S40.97 1094.26 52.67 1094.26S72.82 1065.26 83.21 1065.26S103.44 1097.46 113.74 1097.46S133.28 1047.44 144.27 1047.44S163.42 1136.87 174.81 1136.87S192.29 1032.33 205.34 1032.33S223.86 1101 235.88 1101S254.86 1054.62 266.41 1054.62S285.51 1115.02 296.95 1115.02S316.44 1123.43 327.48 1123.43S347.12 1122.95 358.02 1122.95S376.3 1051.92 388.55 1051.92S407.68 1110.31 419.08 1110.31S438.14 1058.19 449.62 1058.19S467.21 1117.52 480.15 1117.52S496.15 1065.32 510.69 1065.32S530.34 1095.21 541.22 1095.21S559.28 1061.12 571.76 1061.12S591.55 1120.23 602.29 1120.23S621.53 1036.04 632.82 1036.04S649.58 1120.42 663.36 1120.42S680.01 1039.51 693.89 1039.51S710.28 1129.85 724.43 1129.85L700 2000 L-100 2000 Z"/><animateTransform attributeName="transform" type="translate" dur="5.333333333333333s" begin="-3.2s" repeatCount="indefinite" values="0;10;0" calcMode="spline" keySplines="0.3 0 0.7 1;0.3 0 0.7 1"/></path><path d="M-100 1184.26c16.45-16.41 20.22-64.99 31.5-64.99s16.96 53.48 31.49 53.48 19.21 18.43 31.5 18.43 15.91-7.62 31.49-7.62 16.46 5.54 31.5 5.54 20.2-60.27 31.5-60.27 17.05 40.75 31.49 40.75 16.75-46.57 31.5-46.57 18.19 68.8 31.49 68.8 18.79-64.76 31.5-64.76 16.24 60.61 31.5 60.61 17.56-76.23 31.49-76.23 17.37 80.75 31.5 80.75 18.12-8.87 31.49-8.87 19.72-2.19 31.5-2.19 20.06-82.27 31.5-82.27 18.55 61.82 31.49 61.82 19.36-28.45 31.5-28.45 19.57 22.79 31.5 22.79 17.99-50.86 31.49-50.86 16.85 76.65 31.5 76.65 17.64-85.69 31.49-85.69 16.37 102.05 31.5 102.05 17.98-103.63 31.5-103.63 20.37 97.71 31.49 97.71 18.28 10.09 31.5 10.09L700 2000h-800Z" fill="#535353"><animate attributeName="d" dur="4s" repeatCount="indefinite" values="M-100 1184.26C-83.55 1167.85 -79.78 1119.27 -68.5 1119.27S-51.54 1172.75 -37.01 1172.75S-17.8 1191.18 -5.51 1191.18S10.4 1183.56 25.98 1183.56S42.44 1189.1 57.48 1189.1S77.68 1128.83 88.98 1128.83S106.03 1169.58 120.47 1169.58S137.22 1123.01 151.97 1123.01S170.16 1191.81 183.46 1191.81S202.25 1127.05 214.96 1127.05S231.2 1187.66 246.46 1187.66S264.02 1111.43 277.95 1111.43S295.32 1192.18 309.45 1192.18S327.57 1183.31 340.94 1183.31S360.66 1181.12 372.44 1181.12S392.5 1098.85 403.94 1098.85S422.49 1160.67 435.43 1160.67S454.79 1132.22 466.93 1132.22S486.5 1155.01 498.43 1155.01S516.42 1104.15 529.92 1104.15S546.77 1180.8 561.42 1180.8S579.06 1095.11 592.91 1095.11S609.28 1197.16 624.41 1197.16S642.39 1093.53 655.91 1093.53S676.28 1191.24 687.4 1191.24S705.68 1201.33 718.9 1201.33L700 2000 L-100 2000 Z;M-100 1126.89C-83.07 1104.91 -82.04 1203.17 -68.5 1203.17S-48.6 1089.45 -37.01 1089.45S-18.64 1108.32 -5.51 1108.32S12.01 1192.04 25.98 1192.04S42.95 1171.63 57.48 1171.63S76.45 1103.23 88.98 1103.23S109.61 1177 120.47 1177S140.89 1090.02 151.97 1090.02S170.1 1161.12 183.46 1161.12S201.26 1108.54 214.96 1108.54S234.64 1202.06 246.46 1202.06S265.59 1095.95 277.95 1095.95S298.46 1167.89 309.45 1167.89S326.59 1101.43 340.94 1101.43S359.01 1195.36 372.44 1195.36S391.39 1086.59 403.94 1086.59S420.72 1176.32 435.43 1176.32S453.32 1085 466.93 1085S483.14 1184.46 498.43 1184.46S517.93 1085.97 529.92 1085.97S546.78 1098.34 561.42 1098.34S580.72 1100.65 592.91 1100.65S612.61 1191.99 624.41 1191.99S641.79 1125.9 655.91 1125.9S672.86 1197.96 687.4 1197.96S704.7 1088.45 718.9 1088.45L700 2000 L-100 2000 Z;M-100 1184.26C-83.55 1167.85 -79.78 1119.27 -68.5 1119.27S-51.54 1172.75 -37.01 1172.75S-17.8 1191.18 -5.51 1191.18S10.4 1183.56 25.98 1183.56S42.44 1189.1 57.48 1189.1S77.68 1128.83 88.98 1128.83S106.03 1169.58 120.47 1169.58S137.22 1123.01 151.97 1123.01S170.16 1191.81 183.46 1191.81S202.25 1127.05 214.96 1127.05S231.2 1187.66 246.46 1187.66S264.02 1111.43 277.95 1111.43S295.32 1192.18 309.45 1192.18S327.57 1183.31 340.94 1183.31S360.66 1181.12 372.44 1181.12S392.5 1098.85 403.94 1098.85S422.49 1160.67 435.43 1160.67S454.79 1132.22 466.93 1132.22S486.5 1155.01 498.43 1155.01S516.42 1104.15 529.92 1104.15S546.77 1180.8 561.42 1180.8S579.06 1095.11 592.91 1095.11S609.28 1197.16 624.41 1197.16S642.39 1093.53 655.91 1093.53S676.28 1191.24 687.4 1191.24S705.68 1201.33 718.9 1201.33L700 2000 L-100 2000 Z"/><animateTransform attributeName="transform" type="translate" dur="4s" begin="-2.8s" repeatCount="indefinite" values="0;10;0" calcMode="spline" keySplines="0.3 0 0.7 1;0.3 0 0.7 1"/></path><path d="M-100 1150c16.72 16.36 19.16 101.84 32.52 101.84s16.51-100.18 32.52-100.18 18.14 91.6 32.52 91.6 19.49-85.31 32.52-85.31 19.05 101.81 32.52 101.81 21.06-91.09 32.52-91.09 16.94 87.2 32.52 87.2 20.79-98.2 32.52-98.2 17.77 68.29 32.52 68.29 18.81-45.86 32.52-45.86 18.1 76.87 32.52 76.87 19.34-119.75 32.52-119.75 20.97 105.73 32.52 105.73 17.77-56.98 32.52-56.98 21.11 57.32 32.52 57.32 17.51-12.37 32.53-12.37 18.36 27.88 32.52 27.88 21.03-31.04 32.52-31.04 17.5-10.16 32.52-10.16 16.97-49.97 32.52-49.97 21.11 59.07 32.52 59.07 16.66-67.23 32.52-67.23 21.23 77.71 32.52 77.71 16.92-63.19 32.52-63.19 17.99-35.28 32.52-35.28L700 2000h-800Z" fill="#5a5a5a"><animate attributeName="d" dur="2.6666666666666665s" repeatCount="indefinite" values="M-100 1150C-83.28 1166.36 -80.84 1251.84 -67.48 1251.84S-50.97 1151.66 -34.96 1151.66S-16.82 1243.26 -2.44 1243.26S17.05 1157.95 30.08 1157.95S49.13 1259.76 62.6 1259.76S83.66 1168.67 95.12 1168.67S112.06 1255.87 127.64 1255.87S148.43 1157.67 160.16 1157.67S177.93 1225.96 192.68 1225.96S211.49 1180.1 225.2 1180.1S243.3 1256.97 257.72 1256.97S277.06 1137.22 290.24 1137.22S311.21 1242.95 322.76 1242.95S340.53 1185.97 355.28 1185.97S376.39 1243.29 387.8 1243.29S405.31 1230.92 420.33 1230.92S438.69 1258.8 452.85 1258.8S473.88 1227.76 485.37 1227.76S502.87 1217.6 517.89 1217.6S534.86 1167.63 550.41 1167.63S571.52 1226.7 582.93 1226.7S599.59 1159.47 615.45 1159.47S636.68 1237.18 647.97 1237.18S664.89 1173.99 680.49 1173.99S698.48 1138.71 713.01 1138.71L700 2000 L-100 2000 Z;M-100 1164.39C-80.51 1166.98 -83.02 1226.18 -67.48 1226.18S-49.01 1168.48 -34.96 1168.48S-16.72 1258.21 -2.44 1258.21S14.92 1234.57 30.08 1234.57S51.22 1226.33 62.6 1226.33S80.42 1238.43 95.12 1238.43S115.87 1250.53 127.64 1250.53S147.53 1221.6 160.16 1221.6S176.57 1243.35 192.68 1243.35S213.28 1167.79 225.2 1167.79S241.66 1234.97 257.72 1234.97S278.28 1153.39 290.24 1153.39S309.71 1218.38 322.76 1218.38S340.61 1160.37 355.28 1160.37S371.94 1178.86 387.8 1178.86S406.2 1152.76 420.33 1152.76S436.7 1232.15 452.85 1232.15S469.14 1183.25 485.37 1183.25S503.63 1240.64 517.89 1240.64S535.06 1150.77 550.41 1150.77S567 1253.83 582.93 1253.83S602.85 1184.64 615.45 1184.64S633.65 1256.61 647.97 1256.61S667.7 1151.91 680.49 1151.91S701.73 1257.19 713.01 1257.19L700 2000 L-100 2000 Z;M-100 1150C-83.28 1166.36 -80.84 1251.84 -67.48 1251.84S-50.97 1151.66 -34.96 1151.66S-16.82 1243.26 -2.44 1243.26S17.05 1157.95 30.08 1157.95S49.13 1259.76 62.6 1259.76S83.66 1168.67 95.12 1168.67S112.06 1255.87 127.64 1255.87S148.43 1157.67 160.16 1157.67S177.93 1225.96 192.68 1225.96S211.49 1180.1 225.2 1180.1S243.3 1256.97 257.72 1256.97S277.06 1137.22 290.24 1137.22S311.21 1242.95 322.76 1242.95S340.53 1185.97 355.28 1185.97S376.39 1243.29 387.8 1243.29S405.31 1230.92 420.33 1230.92S438.69 1258.8 452.85 1258.8S473.88 1227.76 485.37 1227.76S502.87 1217.6 517.89 1217.6S534.86 1167.63 550.41 1167.63S571.52 1226.7 582.93 1226.7S599.59 1159.47 615.45 1159.47S636.68 1237.18 647.97 1237.18S664.89 1173.99 680.49 1173.99S698.48 1138.71 713.01 1138.71L700 2000 L-100 2000 Z"/><animateTransform attributeName="transform" type="translate" dur="2.6666666666666665s" begin="-2.1333333333333333s" repeatCount="indefinite" values="0;10;0" calcMode="spline" keySplines="0.3 0 0.7 1;0.3 0 0.7 1"/></path><path d="M-100 1207.4c16.96 3.51 21.7 105.5 33.61 105.5s17.46-107.38 33.62-107.38 21.71 113.1 33.61 113.1 20.28-82.3 33.61-82.3 17.13 83.65 33.62 83.65 19.28-125.03 33.61-125.03 20.97 125.41 33.61 125.41 18.14-84.65 33.62-84.65 17.39 71.95 33.61 71.95 21.78-88.36 33.61-88.36 21.67 76.98 33.62 76.98 20.46-59.73 33.61-59.73 17.28 74.7 33.61 74.7 20.5-114 33.62-114 18.18 86.32 33.61 86.32 18.49-81.33 33.62-81.33 20.39 98.09 33.61 98.09 18.34-86.34 33.61-86.34 17.47 64.99 33.62 64.99 18.47-45.57 33.61-45.57 21.49-11.06 33.61-11.06 21.5-.79 33.62-.79 20.16 60.83 33.61 60.83 20.74 13.77 33.61 13.77L700 2000h-800Z" fill="#626262"><animate attributeName="d" dur="1.3333333333333333s" repeatCount="indefinite" values="M-100 1207.4C-83.04 1210.91 -78.3 1312.9 -66.39 1312.9S-48.93 1205.52 -32.77 1205.52S-11.06 1318.62 0.84 1318.62S21.12 1236.32 34.45 1236.32S51.58 1319.97 68.07 1319.97S87.35 1194.94 101.68 1194.94S122.65 1320.35 135.29 1320.35S153.43 1235.7 168.91 1235.7S186.3 1307.65 202.52 1307.65S224.3 1219.29 236.13 1219.29S257.8 1296.27 269.75 1296.27S290.21 1236.54 303.36 1236.54S320.64 1311.24 336.97 1311.24S357.47 1197.24 370.59 1197.24S388.77 1283.56 404.2 1283.56S422.69 1202.23 437.82 1202.23S458.21 1300.32 471.43 1300.32S489.77 1213.98 505.04 1213.98S522.51 1278.97 538.66 1278.97S557.13 1233.4 572.27 1233.4S593.76 1222.34 605.88 1222.34S627.38 1221.55 639.5 1221.55S659.66 1282.38 673.11 1282.38S693.85 1296.15 706.72 1296.15L700 2000 L-100 2000 Z;M-100 1192.36C-78.95 1218.87 -78.35 1289.38 -66.39 1289.38S-49.48 1194.41 -32.77 1194.41S-13.51 1295.93 0.84 1295.93S17.8 1202.47 34.45 1202.47S54.59 1282.78 68.07 1282.78S87.06 1203.8 101.68 1203.8S121.58 1315.35 135.29 1315.35S155.8 1215.65 168.91 1215.65S186.31 1208.95 202.52 1208.95S222.28 1227.67 236.13 1227.67S253.72 1310.27 269.75 1310.27S289.36 1296.41 303.36 1296.41S321.91 1312.94 336.97 1312.94S356.29 1227.52 370.59 1227.52S392.03 1304 404.2 1304S421.56 1188.69 437.82 1188.69S457.54 1313.53 471.43 1313.53S492.29 1319.55 505.04 1319.55S526.34 1287.21 538.66 1287.21S556.41 1222.95 572.27 1222.95S590.21 1294.58 605.88 1294.58S625.96 1237.56 639.5 1237.56S656.44 1313.67 673.11 1313.67S694.83 1197.39 706.72 1197.39L700 2000 L-100 2000 Z;M-100 1207.4C-83.04 1210.91 -78.3 1312.9 -66.39 1312.9S-48.93 1205.52 -32.77 1205.52S-11.06 1318.62 0.84 1318.62S21.12 1236.32 34.45 1236.32S51.58 1319.97 68.07 1319.97S87.35 1194.94 101.68 1194.94S122.65 1320.35 135.29 1320.35S153.43 1235.7 168.91 1235.7S186.3 1307.65 202.52 1307.65S224.3 1219.29 236.13 1219.29S257.8 1296.27 269.75 1296.27S290.21 1236.54 303.36 1236.54S320.64 1311.24 336.97 1311.24S357.47 1197.24 370.59 1197.24S388.77 1283.56 404.2 1283.56S422.69 1202.23 437.82 1202.23S458.21 1300.32 471.43 1300.32S489.77 1213.98 505.04 1213.98S522.51 1278.97 538.66 1278.97S557.13 1233.4 572.27 1233.4S593.76 1222.34 605.88 1222.34S627.38 1221.55 639.5 1221.55S659.66 1282.38 673.11 1282.38S693.85 1296.15 706.72 1296.15L700 2000 L-100 2000 Z"/><animateTransform attributeName="transform" type="translate" dur="1.3333333333333333s" begin="-1.2s" repeatCount="indefinite" values="0;10;0" calcMode="spline" keySplines="0.3 0 0.7 1;0.3 0 0.7 1"/></path></svg>