<svg xmlns="http://www.w3.org/2000/svg" style="margin:auto;background:#212121;display:block;z-index:1;position:relative" width="2560" height="1000" preserveAspectRatio="xMidYMid" viewBox="0 0 2560 1000"><path d="M-100 666.39c67.47-5.41 67.95-63.72 131.43-63.72s68.84 7.49 131.43 7.49 67.36 55.22 131.43 55.22 71.19-15.23 131.42-15.23 70.12-40.68 131.43-40.68 71.69 53.09 131.43 53.09 71.03-8.22 131.43-8.22 70.49-51.64 131.43-51.64 71.54 56.77 131.43 56.77 70.21-54.62 131.43-54.62 69.18-3.26 131.42-3.26 69.18 27.44 131.43 27.44 67.42 5.12 131.43 5.12 66.21-1.97 131.43-1.97 67.04 21.27 131.43 21.27 69.76 12.34 131.43 12.34 67.26-26.72 131.43-26.72 67.41 6.11 131.42 6.11 69.45-30.46 131.43-30.46 72.1 29.43 131.43 29.43 65.93-22.38 131.43-22.38 68.89 31 131.43 31L2660 1000H-100Z" fill="#212121"><animate attributeName="d" dur="24.59016393442623s" repeatCount="indefinite" values="M-100 666.39C-32.53 660.98 -32.05 602.67 31.43 602.67S100.27 610.16 162.86 610.16S230.22 665.38 294.29 665.38S365.48 650.15 425.71 650.15S495.83 609.47 557.14 609.47S628.83 662.56 688.57 662.56S759.6 654.34 820 654.34S890.49 602.7 951.43 602.7S1022.97 659.47 1082.86 659.47S1153.07 604.85 1214.29 604.85S1283.47 601.59 1345.71 601.59S1414.89 629.03 1477.14 629.03S1544.56 634.15 1608.57 634.15S1674.78 632.18 1740 632.18S1807.04 653.45 1871.43 653.45S1941.19 665.79 2002.86 665.79S2070.12 639.07 2134.29 639.07S2201.7 645.18 2265.71 645.18S2335.16 614.72 2397.14 614.72S2469.24 644.15 2528.57 644.15S2594.5 621.77 2660 621.77S2728.89 652.77 2791.43 652.77L2660 1000 L-100 1000 Z;M-100 657.78C-28.59 609.46 -29.24 608 31.43 608S100.85 649.14 162.86 649.14S234.79 665.12 294.29 665.12S366.41 610.89 425.71 610.89S493.14 656.73 557.14 656.73S624.85 635.61 688.57 635.61S757.91 623.17 820 623.17S888.11 640.9 951.43 640.9S1021.12 620.87 1082.86 620.87S1151.51 658.62 1214.29 658.62S1281.92 607.73 1345.71 607.73S1415.72 654.89 1477.14 654.89S1549.5 615.87 1608.57 615.87S1675.23 604.51 1740 604.51S1805.73 610.33 1871.43 610.33S1937.65 623.15 2002.86 623.15S2072.66 657.54 2134.29 657.54S2200.67 616.99 2265.71 616.99S2331.73 640.52 2397.14 640.52S2463.65 628.72 2528.57 628.72S2596.59 652 2660 652S2732.09 603.41 2791.43 603.41L2660 1000 L-100 1000 Z;M-100 666.39C-32.53 660.98 -32.05 602.67 31.43 602.67S100.27 610.16 162.86 610.16S230.22 665.38 294.29 665.38S365.48 650.15 425.71 650.15S495.83 609.47 557.14 609.47S628.83 662.56 688.57 662.56S759.6 654.34 820 654.34S890.49 602.7 951.43 602.7S1022.97 659.47 1082.86 659.47S1153.07 604.85 1214.29 604.85S1283.47 601.59 1345.71 601.59S1414.89 629.03 1477.14 629.03S1544.56 634.15 1608.57 634.15S1674.78 632.18 1740 632.18S1807.04 653.45 1871.43 653.45S1941.19 665.79 2002.86 665.79S2070.12 639.07 2134.29 639.07S2201.7 645.18 2265.71 645.18S2335.16 614.72 2397.14 614.72S2469.24 644.15 2528.57 644.15S2594.5 621.77 2660 621.77S2728.89 652.77 2791.43 652.77L2660 1000 L-100 1000 Z"/><animateTransform attributeName="transform" type="translate" dur="24.59016393442623s" begin="0s" repeatCount="indefinite" values="0;10;0" calcMode="spline" keySplines="0.3 0 0.7 1;0.3 0 0.7 1"/></path><path d="M-100 638.24c69.89 25.43 67.26 14.49 133.76 14.49s67.82-10.82 133.77-10.82 70.12 2.23 133.76 2.23 68.98 14.26 133.77 14.26 71.9-29.23 133.76-29.23 68.19 41.36 133.76 41.36 73.42-14.32 133.77-14.32 72.24 14.97 133.76 14.97 72.42-53.62 133.77-53.62 71.73 22.84 133.76 22.84 73.44 19.73 133.77 19.73 67.64-13.91 133.76-13.91 68.39-3.52 133.76-3.52 68.07 40.86 133.77 40.86 69.19-11.75 133.76-11.75 68.23.04 133.77.04 70.83 8.23 133.76 8.23 67.14-24.48 133.76-24.48 73.36 20.42 133.77 20.42 73.27-53.57 133.76-53.57 69.74 7.99 133.77 7.99L2660 1000H-100Z" fill="#2d2d2d"><animate attributeName="d" dur="22.950819672131146s" repeatCount="indefinite" values="M-100 638.24C-30.11 663.67 -32.74 652.73 33.76 652.73S101.58 641.91 167.53 641.91S237.65 644.14 301.29 644.14S370.27 658.4 435.06 658.4S506.96 629.17 568.82 629.17S637.01 670.53 702.58 670.53S776 656.21 836.35 656.21S908.59 671.18 970.11 671.18S1042.53 617.56 1103.88 617.56S1175.61 640.4 1237.64 640.4S1311.08 660.13 1371.41 660.13S1439.05 646.22 1505.17 646.22S1573.56 642.7 1638.93 642.7S1707 683.56 1772.7 683.56S1841.89 671.81 1906.46 671.81S1974.69 671.85 2040.23 671.85S2111.06 680.08 2173.99 680.08S2241.13 655.6 2307.75 655.6S2381.11 676.02 2441.52 676.02S2514.79 622.45 2575.28 622.45S2645.02 630.44 2709.05 630.44L2660 1000 L-100 1000 Z;M-100 672.27C-30.68 655.62 -31.5 632.69 33.76 632.69S104.58 645.96 167.53 645.96S239.61 637.03 301.29 637.03S370.04 635.89 435.06 635.89S508.44 619.3 568.82 619.3S636.62 658.77 702.58 658.77S772.78 667.7 836.35 667.7S905.08 644.76 970.11 644.76S1043.39 669.59 1103.88 669.59S1176.78 675.83 1237.64 675.83S1305.73 674.12 1371.41 674.12S1443.07 644.53 1505.17 644.53S1576.15 681.31 1638.93 681.31S1708.48 666.25 1772.7 666.25S1845.95 681.8 1906.46 681.8S1973.48 681.1 2040.23 681.1S2112.9 632.38 2173.99 632.38S2242.88 639.59 2307.75 639.59S2378.24 649.36 2441.52 649.36S2514.11 678.03 2575.28 678.03S2647.95 634.87 2709.05 634.87L2660 1000 L-100 1000 Z;M-100 638.24C-30.11 663.67 -32.74 652.73 33.76 652.73S101.58 641.91 167.53 641.91S237.65 644.14 301.29 644.14S370.27 658.4 435.06 658.4S506.96 629.17 568.82 629.17S637.01 670.53 702.58 670.53S776 656.21 836.35 656.21S908.59 671.18 970.11 671.18S1042.53 617.56 1103.88 617.56S1175.61 640.4 1237.64 640.4S1311.08 660.13 1371.41 660.13S1439.05 646.22 1505.17 646.22S1573.56 642.7 1638.93 642.7S1707 683.56 1772.7 683.56S1841.89 671.81 1906.46 671.81S1974.69 671.85 2040.23 671.85S2111.06 680.08 2173.99 680.08S2241.13 655.6 2307.75 655.6S2381.11 676.02 2441.52 676.02S2514.79 622.45 2575.28 622.45S2645.02 630.44 2709.05 630.44L2660 1000 L-100 1000 Z"/><animateTransform attributeName="transform" type="translate" dur="22.950819672131146s" begin="-1.530054644808743s" repeatCount="indefinite" values="0;10;0" calcMode="spline" keySplines="0.3 0 0.7 1;0.3 0 0.7 1"/></path><path d="M-100 676.32c73.06-19.02 71.81-3.13 136.18-3.13s70.78 10.61 136.19 10.61 70.79-2.17 136.18-2.17 73.2-22.05 136.19-22.05 71.12-1.28 136.18-1.28 73.2.12 136.19.12 72.55-7.78 136.18-7.78 73.47 33.68 136.18 33.68 70.57-17.24 136.19-17.24 68.3-21.28 136.18-21.28 74.71 52.88 136.19 52.88 71.95-19.62 136.18-19.62 74.67-12.02 136.18-12.02 72.56 4.16 136.19 4.16 70.82-10.35 136.18-10.35 68.45-16.23 136.19-16.23 71.31 16.19 136.18 16.19 74.65-12.57 136.19-12.57 69.32 7.77 136.18 7.77 70.93-18.02 136.18-18.02 70.67 20.69 136.19 20.69L2660 1000H-100Z" fill="#393939"><animate attributeName="d" dur="21.311475409836067s" repeatCount="indefinite" values="M-100 676.32C-26.94 657.3 -28.19 673.19 36.18 673.19S106.96 683.8 172.37 683.8S243.16 681.63 308.55 681.63S381.75 659.58 444.74 659.58S515.86 658.3 580.92 658.3S654.12 658.42 717.11 658.42S789.66 650.64 853.29 650.64S926.76 684.32 989.47 684.32S1060.04 667.08 1125.66 667.08S1193.96 645.8 1261.84 645.8S1336.55 698.68 1398.03 698.68S1469.98 679.06 1534.21 679.06S1608.88 667.04 1670.39 667.04S1742.95 671.2 1806.58 671.2S1877.4 660.85 1942.76 660.85S2011.21 644.62 2078.95 644.62S2150.26 660.81 2215.13 660.81S2289.78 648.24 2351.32 648.24S2420.64 656.01 2487.5 656.01S2558.43 637.99 2623.68 637.99S2694.35 658.68 2759.87 658.68L2660 1000 L-100 1000 Z;M-100 667.54C-26.38 658.18 -27.91 664.44 36.18 664.44S110.64 690.7 172.37 690.7S244.29 653.98 308.55 653.98S380 683.94 444.74 683.94S516.96 688.57 580.92 688.57S651.23 673.78 717.11 673.78S787.03 702.02 853.29 702.02S925.73 661.43 989.47 661.43S1060.26 675.76 1125.66 675.76S1200.32 667.08 1261.84 667.08S1336.09 660.54 1398.03 660.54S1471.07 696.46 1534.21 696.46S1606.2 659.28 1670.39 659.28S1744.47 688.65 1806.58 688.65S1877.47 680 1942.76 680S2013.4 645.25 2078.95 645.25S2147.66 671.66 2215.13 671.66S2285.21 680.46 2351.32 680.46S2421.9 677.21 2487.5 677.21S2557.24 641.31 2623.68 641.31S2695.4 692.88 2759.87 692.88L2660 1000 L-100 1000 Z;M-100 676.32C-26.94 657.3 -28.19 673.19 36.18 673.19S106.96 683.8 172.37 683.8S243.16 681.63 308.55 681.63S381.75 659.58 444.74 659.58S515.86 658.3 580.92 658.3S654.12 658.42 717.11 658.42S789.66 650.64 853.29 650.64S926.76 684.32 989.47 684.32S1060.04 667.08 1125.66 667.08S1193.96 645.8 1261.84 645.8S1336.55 698.68 1398.03 698.68S1469.98 679.06 1534.21 679.06S1608.88 667.04 1670.39 667.04S1742.95 671.2 1806.58 671.2S1877.4 660.85 1942.76 660.85S2011.21 644.62 2078.95 644.62S2150.26 660.81 2215.13 660.81S2289.78 648.24 2351.32 648.24S2420.64 656.01 2487.5 656.01S2558.43 637.99 2623.68 637.99S2694.35 658.68 2759.87 658.68L2660 1000 L-100 1000 Z"/><animateTransform attributeName="transform" type="translate" dur="21.311475409836067s" begin="-2.841530054644809s" repeatCount="indefinite" values="0;10;0" calcMode="spline" keySplines="0.3 0 0.7 1;0.3 0 0.7 1"/></path><path d="M-100 676.03c75.45-10.45 71.04-20.01 138.69-20.01s73.74 45.66 138.7 45.66 75.91-8.4 138.69-8.4 74.88 17.03 138.69 17.03 75.72-12.14 138.7-12.14 69.63-38.76 138.69-38.76 72.27 16.67 138.69 16.67 70.39 23.91 138.7 23.91 70.91-37.23 138.69-37.23 73.06 30.2 138.69 30.2 71.75 18.53 138.7 18.53 73.18-44.92 138.69-44.92 73.82 3.22 138.7 3.22 73.38 43.05 138.69 43.05 70.84-38.8 138.69-38.8 69.83 10.15 138.7 10.15 69.46-14.06 138.69-14.06 70.48 27.68 138.69 27.68 69.69-21.73 138.7-21.73 69.92-1.13 138.69-1.13L2660 1000H-100Z" fill="#464646"><animate attributeName="d" dur="19.672131147540984s" repeatCount="indefinite" values="M-100 676.03C-24.55 665.58 -28.96 656.02 38.69 656.02S112.43 701.68 177.39 701.68S253.3 693.28 316.08 693.28S390.96 710.31 454.77 710.31S530.49 698.17 593.47 698.17S663.1 659.41 732.16 659.41S804.43 676.08 870.85 676.08S941.24 699.99 1009.55 699.99S1080.46 662.76 1148.24 662.76S1221.3 692.96 1286.93 692.96S1358.68 711.49 1425.63 711.49S1498.81 666.57 1564.32 666.57S1638.14 669.79 1703.02 669.79S1776.4 712.84 1841.71 712.84S1912.55 674.04 1980.4 674.04S2050.23 684.19 2119.1 684.19S2188.56 670.13 2257.79 670.13S2328.27 697.81 2396.48 697.81S2466.17 676.08 2535.18 676.08S2605.1 674.95 2673.87 674.95L2660 1000 L-100 1000 Z;M-100 701.38C-29.09 666.9 -29.46 666.79 38.69 666.79S112.86 700.03 177.39 700.03S251.44 664.36 316.08 664.36S386.54 692.27 454.77 692.27S529.7 662.36 593.47 662.36S668.17 688.08 732.16 688.08S802.54 700.92 870.85 700.92S941.02 694.07 1009.55 694.07S1085.34 717.8 1148.24 717.8S1217.73 678.06 1286.93 678.06S1360.95 718.39 1425.63 718.39S1496.12 661.51 1564.32 661.51S1639.44 708.62 1703.02 708.62S1776.34 661.78 1841.71 661.78S1912.43 686.98 1980.4 686.98S2052.43 680.43 2119.1 680.43S2188.98 683.05 2257.79 683.05S2332.63 673.38 2396.48 673.38S2469.49 699.3 2535.18 699.3S2609.02 700.78 2673.87 700.78L2660 1000 L-100 1000 Z;M-100 676.03C-24.55 665.58 -28.96 656.02 38.69 656.02S112.43 701.68 177.39 701.68S253.3 693.28 316.08 693.28S390.96 710.31 454.77 710.31S530.49 698.17 593.47 698.17S663.1 659.41 732.16 659.41S804.43 676.08 870.85 676.08S941.24 699.99 1009.55 699.99S1080.46 662.76 1148.24 662.76S1221.3 692.96 1286.93 692.96S1358.68 711.49 1425.63 711.49S1498.81 666.57 1564.32 666.57S1638.14 669.79 1703.02 669.79S1776.4 712.84 1841.71 712.84S1912.55 674.04 1980.4 674.04S2050.23 684.19 2119.1 684.19S2188.56 670.13 2257.79 670.13S2328.27 697.81 2396.48 697.81S2466.17 676.08 2535.18 676.08S2605.1 674.95 2673.87 674.95L2660 1000 L-100 1000 Z"/><animateTransform attributeName="transform" type="translate" dur="19.672131147540984s" begin="-3.934426229508197s" repeatCount="indefinite" values="0;10;0" calcMode="spline" keySplines="0.3 0 0.7 1;0.3 0 0.7 1"/></path><path d="M-100 674.72c76.57 13.98 77.01 11.42 141.3 11.42s75.69 47.71 141.29 47.71 75.09-11.29 141.3-11.29 71.63-51.33 141.3-51.33 73.2 59.18 141.29 59.18 76.29 1.05 141.3 1.05 76.76-29.29 141.3-29.29 75.81 23.48 141.3 23.48 72.29-28.44 141.29-28.44 70.67-18.36 141.3-18.36 74.2 49.29 141.3 49.29 70.88 3.31 141.29 3.31 72.29-25.58 141.3-25.58 73.04 7.76 141.3 7.76 74.07-.78 141.29-.78 75.43-39.77 141.3-39.77 72.31 51.46 141.3 51.46 72.41-12.95 141.29-12.95 71.54-38 141.3-38 72.5 45.21 141.3 45.21L2660 1000H-100Z" fill="#535353"><animate attributeName="d" dur="18.0327868852459s" repeatCount="indefinite" values="M-100 674.72C-23.43 688.7 -22.99 686.14 41.3 686.14S116.99 733.85 182.59 733.85S257.68 722.56 323.89 722.56S395.52 671.23 465.19 671.23S538.39 730.41 606.48 730.41S682.77 731.46 747.78 731.46S824.54 702.17 889.08 702.17S964.89 725.65 1030.38 725.65S1102.67 697.21 1171.67 697.21S1242.34 678.85 1312.97 678.85S1387.17 728.14 1454.27 728.14S1525.15 731.45 1595.56 731.45S1667.85 705.87 1736.86 705.87S1809.9 713.63 1878.16 713.63S1952.23 712.85 2019.45 712.85S2094.88 673.08 2160.75 673.08S2233.06 724.54 2302.05 724.54S2374.46 711.59 2443.34 711.59S2514.88 673.59 2584.64 673.59S2657.14 718.8 2725.94 718.8L2660 1000 L-100 1000 Z;M-100 722.71C-27.84 704.27 -23.47 714.79 41.3 714.79S115.26 702.11 182.59 702.11S257.92 718.25 323.89 718.25S400.79 717.75 465.19 717.75S540.96 700.5 606.48 700.5S677.57 708.85 747.78 708.85S823.38 732.13 889.08 732.13S961.1 725.03 1030.38 725.03S1102.82 685.01 1171.67 685.01S1248.83 675.1 1312.97 675.1S1387.65 694.99 1454.27 694.99S1528.22 684.04 1595.56 684.04S1669.42 722.51 1736.86 722.51S1810.03 723.41 1878.16 723.41S1950.2 732.27 2019.45 732.27S2091.83 729.38 2160.75 729.38S2233.82 700.47 2302.05 700.47S2377.95 711.16 2443.34 711.16S2519.78 724.13 2584.64 724.13S2657.59 709.81 2725.94 709.81L2660 1000 L-100 1000 Z;M-100 674.72C-23.43 688.7 -22.99 686.14 41.3 686.14S116.99 733.85 182.59 733.85S257.68 722.56 323.89 722.56S395.52 671.23 465.19 671.23S538.39 730.41 606.48 730.41S682.77 731.46 747.78 731.46S824.54 702.17 889.08 702.17S964.89 725.65 1030.38 725.65S1102.67 697.21 1171.67 697.21S1242.34 678.85 1312.97 678.85S1387.17 728.14 1454.27 728.14S1525.15 731.45 1595.56 731.45S1667.85 705.87 1736.86 705.87S1809.9 713.63 1878.16 713.63S1952.23 712.85 2019.45 712.85S2094.88 673.08 2160.75 673.08S2233.06 724.54 2302.05 724.54S2374.46 711.59 2443.34 711.59S2514.88 673.59 2584.64 673.59S2657.14 718.8 2725.94 718.8L2660 1000 L-100 1000 Z"/><animateTransform attributeName="transform" type="translate" dur="18.0327868852459s" begin="-4.808743169398907s" repeatCount="indefinite" values="0;10;0" calcMode="spline" keySplines="0.3 0 0.7 1;0.3 0 0.7 1"/></path><path d="M-100 707.8c75.28 15.59 73.6.48 144 .48s76.91-9.03 144-9.03 73.97 14.97 144 14.97 75.65-4.83 144-4.83 72.37 31.28 144 31.28 73.92-12.03 144-12.03 74.93 7.06 144 7.06 73.06-11.31 144-11.31 74.16 13.25 144 13.25 76.98-23.35 144-23.35 78.31-4.91 144-4.91 74.11 20.15 144 20.15 78.22-25.72 144-25.72 74.77-17.12 144-17.12 76.88 11.7 144 11.7 77.68 28.15 144 28.15 73.1-25.48 144-25.48 73.43 14.44 144 14.44 75.81 30.57 144 30.57 73.8-46.58 144-46.58L2660 1000H-100Z" fill="#616161"><animate attributeName="d" dur="16.39344262295082s" repeatCount="indefinite" values="M-100 707.8C-24.72 723.39 -26.4 708.28 44 708.28S120.91 699.25 188 699.25S261.97 714.22 332 714.22S407.65 709.39 476 709.39S548.37 740.67 620 740.67S693.92 728.64 764 728.64S838.93 735.7 908 735.7S981.06 724.39 1052 724.39S1126.16 737.64 1196 737.64S1272.98 714.29 1340 714.29S1418.31 709.38 1484 709.38S1558.11 729.53 1628 729.53S1706.22 703.81 1772 703.81S1846.77 686.69 1916 686.69S1992.88 698.39 2060 698.39S2137.68 726.54 2204 726.54S2277.1 701.06 2348 701.06S2421.43 715.5 2492 715.5S2567.81 746.07 2636 746.07S2709.8 699.49 2780 699.49L2660 1000 L-100 1000 Z;M-100 715.9C-22.83 687.03 -21.77 710.77 44 710.77S120.71 726.53 188 726.53S264.42 713.01 332 713.01S409.69 725.52 476 725.52S552.52 732.86 620 732.86S693.96 696.95 764 696.95S842.28 732.91 908 732.91S984.38 737.41 1052 737.41S1128.29 708.03 1196 708.03S1271.2 692.07 1340 692.07S1416.24 754.27 1484 754.27S1562.19 707.1 1628 707.1S1705.79 716.63 1772 716.63S1847.37 735.12 1916 735.12S1994.57 732.91 2060 732.91S2134.75 740.6 2204 740.6S2282.47 696.74 2348 696.74S2424.31 702.62 2492 702.62S2567.14 719.15 2636 719.15S2708.04 725.44 2780 725.44L2660 1000 L-100 1000 Z;M-100 707.8C-24.72 723.39 -26.4 708.28 44 708.28S120.91 699.25 188 699.25S261.97 714.22 332 714.22S407.65 709.39 476 709.39S548.37 740.67 620 740.67S693.92 728.64 764 728.64S838.93 735.7 908 735.7S981.06 724.39 1052 724.39S1126.16 737.64 1196 737.64S1272.98 714.29 1340 714.29S1418.31 709.38 1484 709.38S1558.11 729.53 1628 729.53S1706.22 703.81 1772 703.81S1846.77 686.69 1916 686.69S1992.88 698.39 2060 698.39S2137.68 726.54 2204 726.54S2277.1 701.06 2348 701.06S2421.43 715.5 2492 715.5S2567.81 746.07 2636 746.07S2709.8 699.49 2780 699.49L2660 1000 L-100 1000 Z"/><animateTransform attributeName="transform" type="translate" dur="16.39344262295082s" begin="-5.464480874316939s" repeatCount="indefinite" values="0;10;0" calcMode="spline" keySplines="0.3 0 0.7 1;0.3 0 0.7 1"/></path><path d="M-100 738.29c76.36-8.43 76.77 5.41 146.81 5.41s76.87-16.43 146.81-16.43 79.86-12.52 146.81-12.52 79.26 45.99 146.8 45.99 76.87-17.93 146.81-17.93 76.18-2.24 146.81-2.24 75.32-14.74 146.81-14.74 75.26 12.07 146.81 12.07 76.18 35.69 146.81 35.69 77.69-41.93 146.81-41.93 74.14 27.75 146.8 27.75 75.98-19.91 146.81-19.91 77.84-25.72 146.81-25.72 75.5 22.23 146.81 22.23 75.68 5.86 146.81 5.86 73.65-27.09 146.81-27.09 79.41 47.01 146.8 47.01 78.84-17.82 146.81-17.82 78.72 2.36 146.81 2.36L2660 1000H-100Z" fill="#6f6f6f"><animate attributeName="d" dur="14.754098360655737s" repeatCount="indefinite" values="M-100 738.29C-23.64 729.86 -23.23 743.7 46.81 743.7S123.68 727.27 193.62 727.27S273.48 714.75 340.43 714.75S419.69 760.74 487.23 760.74S564.1 742.81 634.04 742.81S710.22 740.57 780.85 740.57S856.17 725.83 927.66 725.83S1002.92 737.9 1074.47 737.9S1150.65 773.59 1221.28 773.59S1298.97 731.66 1368.09 731.66S1442.23 759.41 1514.89 759.41S1590.87 739.5 1661.7 739.5S1739.54 713.78 1808.51 713.78S1884.01 736.01 1955.32 736.01S2031 741.87 2102.13 741.87S2175.78 714.78 2248.94 714.78S2328.35 761.79 2395.74 761.79S2474.58 743.97 2542.55 743.97S2621.27 746.33 2689.36 746.33L2660 1000 L-100 1000 Z;M-100 767.68C-26.16 749.59 -21.05 753.57 46.81 753.57S126.66 711.64 193.62 711.64S272.83 745.22 340.43 745.22S418.65 734.86 487.23 734.86S565.94 733.77 634.04 733.77S708.26 730.92 780.85 730.92S857.64 729.26 927.66 729.26S1005.29 710.12 1074.47 710.12S1151.24 749.08 1221.28 749.08S1299.76 716.27 1368.09 716.27S1446.56 771.07 1514.89 771.07S1593.25 730.36 1661.7 730.36S1736.36 751.93 1808.51 751.93S1887.84 766.05 1955.32 766.05S2029.44 719.33 2102.13 719.33S2175.93 722.15 2248.94 722.15S2324.71 723.12 2395.74 723.12S2473.73 770.07 2542.55 770.07S2619.53 752.81 2689.36 752.81L2660 1000 L-100 1000 Z;M-100 738.29C-23.64 729.86 -23.23 743.7 46.81 743.7S123.68 727.27 193.62 727.27S273.48 714.75 340.43 714.75S419.69 760.74 487.23 760.74S564.1 742.81 634.04 742.81S710.22 740.57 780.85 740.57S856.17 725.83 927.66 725.83S1002.92 737.9 1074.47 737.9S1150.65 773.59 1221.28 773.59S1298.97 731.66 1368.09 731.66S1442.23 759.41 1514.89 759.41S1590.87 739.5 1661.7 739.5S1739.54 713.78 1808.51 713.78S1884.01 736.01 1955.32 736.01S2031 741.87 2102.13 741.87S2175.78 714.78 2248.94 714.78S2328.35 761.79 2395.74 761.79S2474.58 743.97 2542.55 743.97S2621.27 746.33 2689.36 746.33L2660 1000 L-100 1000 Z"/><animateTransform attributeName="transform" type="translate" dur="14.754098360655737s" begin="-5.9016393442622945s" repeatCount="indefinite" values="0;10;0" calcMode="spline" keySplines="0.3 0 0.7 1;0.3 0 0.7 1"/></path><path d="M-100 761.78c75.8-15.91 79.56 29.88 149.73 29.88s80.92-53.05 149.73-53.05 79.44 33.41 149.73 33.41 77.01-35.43 149.73-35.43 76.02-2.19 149.72-2.19 78.69 19.93 149.73 19.93 76.78-29.5 149.73-29.5 80.86 1.4 149.73 1.4 76.86 59.48 149.73 59.48 76.65-28.61 149.73-28.61 81.16 30.56 149.73 30.56 79.82-41.28 149.73-41.28 77.64 15.25 149.72 15.25 77.2 16.82 149.73 16.82 77.61-30.68 149.73-30.68 79.23-3.76 149.73-3.76 80.68 9.38 149.73 9.38 78.01-29.72 149.73-29.72 79.39 5.18 149.73 5.18L2660 1000H-100Z" fill="#7d7d7d"><animate attributeName="d" dur="13.114754098360656s" repeatCount="indefinite" values="M-100 761.78C-24.2 745.87 -20.44 791.66 49.73 791.66S130.65 738.61 199.46 738.61S278.9 772.02 349.19 772.02S426.2 736.59 498.92 736.59S574.94 734.4 648.64 734.4S727.33 754.33 798.37 754.33S875.15 724.83 948.1 724.83S1028.96 726.23 1097.83 726.23S1174.69 785.71 1247.56 785.71S1324.21 757.1 1397.29 757.1S1478.45 787.66 1547.02 787.66S1626.84 746.38 1696.75 746.38S1774.39 761.63 1846.47 761.63S1923.67 778.45 1996.2 778.45S2073.81 747.77 2145.93 747.77S2225.16 744.01 2295.66 744.01S2376.34 753.39 2445.39 753.39S2523.4 723.67 2595.12 723.67S2674.51 728.85 2744.85 728.85L2660 1000 L-100 1000 Z;M-100 738.26C-19.54 780.94 -19.29 773.17 49.73 773.17S130.25 775.22 199.46 775.22S276.94 776.15 349.19 776.15S429.68 759.45 498.92 759.45S577.3 779.2 648.64 779.2S727.75 744.02 798.37 744.02S879.18 773.96 948.1 773.96S1029.27 754.54 1097.83 754.54S1176.91 756.63 1247.56 756.63S1327.41 756.54 1397.29 756.54S1477.27 746.39 1547.02 746.39S1626.74 775.49 1696.75 775.49S1771.99 781.36 1846.47 781.36S1921.77 753.73 1996.2 753.73S2075.99 737.98 2145.93 737.98S2221.79 760.85 2295.66 760.85S2376.19 762.39 2445.39 762.39S2524.21 784.45 2595.12 784.45S2675.93 750.26 2744.85 750.26L2660 1000 L-100 1000 Z;M-100 761.78C-24.2 745.87 -20.44 791.66 49.73 791.66S130.65 738.61 199.46 738.61S278.9 772.02 349.19 772.02S426.2 736.59 498.92 736.59S574.94 734.4 648.64 734.4S727.33 754.33 798.37 754.33S875.15 724.83 948.1 724.83S1028.96 726.23 1097.83 726.23S1174.69 785.71 1247.56 785.71S1324.21 757.1 1397.29 757.1S1478.45 787.66 1547.02 787.66S1626.84 746.38 1696.75 746.38S1774.39 761.63 1846.47 761.63S1923.67 778.45 1996.2 778.45S2073.81 747.77 2145.93 747.77S2225.16 744.01 2295.66 744.01S2376.34 753.39 2445.39 753.39S2523.4 723.67 2595.12 723.67S2674.51 728.85 2744.85 728.85L2660 1000 L-100 1000 Z"/><animateTransform attributeName="transform" type="translate" dur="13.114754098360656s" begin="-6.120218579234972s" repeatCount="indefinite" values="0;10;0" calcMode="spline" keySplines="0.3 0 0.7 1;0.3 0 0.7 1"/></path><path d="M-100 749.35c79.49 5.44 78.97 46.44 152.77 46.44s77.04-7.14 152.77-7.14 76.8-34.21 152.76-34.21 81.04 20.16 152.77 20.16 82.75-31.32 152.77-31.32 80.68 64.93 152.77 64.93 76.66-62.9 152.76-62.9 80.65 50.83 152.77 50.83 76.86-52.07 152.77-52.07 80.08 23.67 152.77 23.67 77.41-23.42 152.76-23.42 77.86 43.95 152.77 43.95 76.88 14.41 152.77 14.41 83.04-33.93 152.77-33.93 77.65-23.9 152.76-23.9 82.68 5.89 152.77 5.89 78.46 49.58 152.77 49.58 80.18-5.42 152.77-5.42 80.19 13.62 152.76 13.62L2660 1000H-100Z" fill="#8b8b8b"><animate attributeName="d" dur="11.475409836065573s" repeatCount="indefinite" values="M-100 749.35C-20.51 754.79 -21.03 795.79 52.77 795.79S129.81 788.65 205.54 788.65S282.34 754.44 358.3 754.44S439.34 774.6 511.07 774.6S593.82 743.28 663.84 743.28S744.52 808.21 816.61 808.21S893.27 745.31 969.37 745.31S1050.02 796.14 1122.14 796.14S1199 744.07 1274.91 744.07S1354.99 767.74 1427.68 767.74S1505.09 744.32 1580.44 744.32S1658.3 788.27 1733.21 788.27S1810.09 802.68 1885.98 802.68S1969.02 768.75 2038.75 768.75S2116.4 744.85 2191.51 744.85S2274.19 750.74 2344.28 750.74S2422.74 800.32 2497.05 800.32S2577.23 794.9 2649.82 794.9S2730.01 808.52 2802.58 808.52L2660 1000 L-100 1000 Z;M-100 758.14C-19.55 747.71 -18.64 768.43 52.77 768.43S129.28 769 205.54 769S288.26 798.18 358.3 798.18S436.35 759.36 511.07 759.36S588.03 761.57 663.84 761.57S742.63 778.35 816.61 778.35S893.67 775.29 969.37 775.29S1050.55 789.95 1122.14 789.95S1203.08 766.55 1274.91 766.55S1354.6 792.25 1427.68 792.25S1507.63 750.7 1580.44 750.7S1663 778.66 1733.21 778.66S1810.73 786.91 1885.98 786.91S1968.62 783.23 2038.75 783.23S2115.75 760.58 2191.51 760.58S2272.89 775.52 2344.28 775.52S2424.61 752.86 2497.05 752.86S2577.93 773.52 2649.82 773.52S2729.24 741.25 2802.58 741.25L2660 1000 L-100 1000 Z;M-100 749.35C-20.51 754.79 -21.03 795.79 52.77 795.79S129.81 788.65 205.54 788.65S282.34 754.44 358.3 754.44S439.34 774.6 511.07 774.6S593.82 743.28 663.84 743.28S744.52 808.21 816.61 808.21S893.27 745.31 969.37 745.31S1050.02 796.14 1122.14 796.14S1199 744.07 1274.91 744.07S1354.99 767.74 1427.68 767.74S1505.09 744.32 1580.44 744.32S1658.3 788.27 1733.21 788.27S1810.09 802.68 1885.98 802.68S1969.02 768.75 2038.75 768.75S2116.4 744.85 2191.51 744.85S2274.19 750.74 2344.28 750.74S2422.74 800.32 2497.05 800.32S2577.23 794.9 2649.82 794.9S2730.01 808.52 2802.58 808.52L2660 1000 L-100 1000 Z"/><animateTransform attributeName="transform" type="translate" dur="11.475409836065573s" begin="-6.120218579234972s" repeatCount="indefinite" values="0;10;0" calcMode="spline" keySplines="0.3 0 0.7 1;0.3 0 0.7 1"/></path><path d="M-100 791c80.43.79 80.71-6.81 155.93-6.81s81.59-4.12 155.93-4.12 78.8 20.05 155.94 20.05 81.37-24.7 155.93-24.7 83.88 40.11 155.93 40.11 80.51-33.37 155.93-33.37 80.46 28.13 155.94 28.13 83.74-32.56 155.93-32.56 81.81-1.19 155.93-1.19 79.52 10.09 155.93 10.09 82.72.95 155.93.95 84.08-14.56 155.94-14.56 79.52 21.31 155.93 21.31 79.89 30.33 155.93 30.33 81.34-62.2 155.93-62.2S2321.17 805 2394.92 805s82.11-24.48 155.93-24.48 80.1-6.76 155.93-6.76L2660 1000H-100Z" fill="#9a9a9a"><animate attributeName="d" dur="9.836065573770492s" repeatCount="indefinite" values="M-100 791C-19.57 791.79 -19.29 784.19 55.93 784.19S137.52 780.07 211.86 780.07S290.66 800.12 367.8 800.12S449.17 775.42 523.73 775.42S607.61 815.53 679.66 815.53S760.17 782.16 835.59 782.16S916.05 810.29 991.53 810.29S1075.27 777.73 1147.46 777.73S1229.27 776.54 1303.39 776.54S1382.91 786.63 1459.32 786.63S1542.04 787.58 1615.25 787.58S1699.33 773.02 1771.19 773.02S1850.71 794.33 1927.12 794.33S2007.01 824.66 2083.05 824.66S2164.39 762.46 2238.98 762.46S2321.17 805 2394.92 805S2477.03 780.52 2550.85 780.52S2630.95 773.76 2706.78 773.76L2660 1000 L-100 1000 Z;M-100 781.84C-20.98 791.63 -21.43 764.31 55.93 764.31S135.01 789.11 211.86 789.11S291.77 787.67 367.8 787.67S450.32 766.15 523.73 766.15S602.31 795.82 679.66 795.82S762.41 785.3 835.59 785.3S919.22 763.13 991.53 763.13S1071.34 779.32 1147.46 779.32S1227.04 803.24 1303.39 803.24S1385.97 756.61 1459.32 756.61S1543.71 803.42 1615.25 803.42S1699.7 780.74 1771.19 780.74S1852.74 772.17 1927.12 772.17S2009.66 776.72 2083.05 776.72S2163.1 811.52 2238.98 811.52S2319.42 775.24 2394.92 775.24S2474.22 769.85 2550.85 769.85S2630.01 783.94 2706.78 783.94L2660 1000 L-100 1000 Z;M-100 791C-19.57 791.79 -19.29 784.19 55.93 784.19S137.52 780.07 211.86 780.07S290.66 800.12 367.8 800.12S449.17 775.42 523.73 775.42S607.61 815.53 679.66 815.53S760.17 782.16 835.59 782.16S916.05 810.29 991.53 810.29S1075.27 777.73 1147.46 777.73S1229.27 776.54 1303.39 776.54S1382.91 786.63 1459.32 786.63S1542.04 787.58 1615.25 787.58S1699.33 773.02 1771.19 773.02S1850.71 794.33 1927.12 794.33S2007.01 824.66 2083.05 824.66S2164.39 762.46 2238.98 762.46S2321.17 805 2394.92 805S2477.03 780.52 2550.85 780.52S2630.95 773.76 2706.78 773.76L2660 1000 L-100 1000 Z"/><animateTransform attributeName="transform" type="translate" dur="9.836065573770492s" begin="-5.901639344262295s" repeatCount="indefinite" values="0;10;0" calcMode="spline" keySplines="0.3 0 0.7 1;0.3 0 0.7 1"/></path><path d="M-100 794.12c81.6 43.41 84.99 24.92 159.23 24.92s83.28-30.51 159.23-30.51 85.44 35.26 159.23 35.26 84.35-38.02 159.23-38.02 80.46 9.45 159.23 9.45 80.66 29.6 159.23 29.6 85.56 14.55 159.24 14.55 81.24-6.32 159.23-6.32 81.86-25.13 159.23-25.13 82.01 37.32 159.23 37.32 83.38-46.48 159.23-46.48 82.19 11.49 159.23 11.49 86.21 18.83 159.23 18.83 81.96-12.41 159.23-12.41 81.49-29.04 159.23-29.04 85.82 28.5 159.23 28.5 82.61-35.42 159.23-35.42 79.96 43.37 159.23 43.37L2660 1000H-100Z" fill="#a9a9a9"><animate attributeName="d" dur="8.19672131147541s" repeatCount="indefinite" values="M-100 794.12C-18.4 837.53 -15.01 819.04 59.23 819.04S142.51 788.53 218.46 788.53S303.9 823.79 377.69 823.79S462.04 785.77 536.92 785.77S617.38 795.22 696.15 795.22S776.81 824.82 855.38 824.82S940.94 839.37 1014.62 839.37S1095.86 833.05 1173.85 833.05S1255.71 807.92 1333.08 807.92S1415.09 845.24 1492.31 845.24S1575.69 798.76 1651.54 798.76S1733.73 810.25 1810.77 810.25S1896.98 829.08 1970 829.08S2051.96 816.67 2129.23 816.67S2210.72 787.63 2288.46 787.63S2374.28 816.13 2447.69 816.13S2530.3 780.71 2606.92 780.71S2686.88 824.08 2766.15 824.08L2660 1000 L-100 1000 Z;M-100 813.38C-19.16 806.08 -16.33 782.38 59.23 782.38S144.01 841.62 218.46 841.62S302.31 773.43 377.69 773.43S459.34 800.68 536.92 800.68S621.88 807.73 696.15 807.73S776.54 836.24 855.38 836.24S938.68 822.24 1014.62 822.24S1099.55 799.34 1173.85 799.34S1255.17 832.1 1333.08 832.1S1417.25 808.87 1492.31 808.87S1575.07 841.34 1651.54 841.34S1733.22 793 1810.77 793S1895.29 829.59 1970 829.59S2053.88 834.1 2129.23 834.1S2212.08 793.52 2288.46 793.52S2369.06 775.17 2447.69 775.17S2532.96 805.1 2606.92 805.1S2688.48 841.9 2766.15 841.9L2660 1000 L-100 1000 Z;M-100 794.12C-18.4 837.53 -15.01 819.04 59.23 819.04S142.51 788.53 218.46 788.53S303.9 823.79 377.69 823.79S462.04 785.77 536.92 785.77S617.38 795.22 696.15 795.22S776.81 824.82 855.38 824.82S940.94 839.37 1014.62 839.37S1095.86 833.05 1173.85 833.05S1255.71 807.92 1333.08 807.92S1415.09 845.24 1492.31 845.24S1575.69 798.76 1651.54 798.76S1733.73 810.25 1810.77 810.25S1896.98 829.08 1970 829.08S2051.96 816.67 2129.23 816.67S2210.72 787.63 2288.46 787.63S2374.28 816.13 2447.69 816.13S2530.3 780.71 2606.92 780.71S2686.88 824.08 2766.15 824.08L2660 1000 L-100 1000 Z"/><animateTransform attributeName="transform" type="translate" dur="8.19672131147541s" begin="-5.464480874316939s" repeatCount="indefinite" values="0;10;0" calcMode="spline" keySplines="0.3 0 0.7 1;0.3 0 0.7 1"/></path><path d="M-100 816.67c87.88 36.11 86.72 40.62 162.67 40.62s85.57-8.86 162.67-8.86 85.87-11.2 162.68-11.2 87.43-37.62 162.67-37.62 86.34-2.16 162.67-2.16 82.3 24.48 162.67 24.48 81.61-.35 162.67-.35 82.88-8.42 162.68-8.42 85.81 23.35 162.67 23.35 83.27 14.7 162.67 14.7 81.46-10.88 162.67-10.88 84.52-33.88 162.67-33.88 87.14 37.99 162.67 37.99 87.29-6.05 162.68-6.05 81.76-1.61 162.67-1.61 82.01 12.97 162.67 12.97 82.04-52.47 162.67-52.47L2660 1000H-100Z" fill="#b8b8b8"><animate attributeName="d" dur="6.557377049180328s" repeatCount="indefinite" values="M-100 816.67C-12.12 852.78 -13.28 857.29 62.67 857.29S148.24 848.43 225.34 848.43S311.21 837.23 388.02 837.23S475.45 799.61 550.69 799.61S637.03 797.45 713.36 797.45S795.66 821.93 876.03 821.93S957.64 821.58 1038.7 821.58S1121.58 813.16 1201.38 813.16S1287.19 836.51 1364.05 836.51S1447.32 851.21 1526.72 851.21S1608.18 840.33 1689.39 840.33S1773.91 806.45 1852.06 806.45S1939.2 844.44 2014.73 844.44S2102.02 838.39 2177.41 838.39S2259.17 836.78 2340.08 836.78S2422.09 849.75 2502.75 849.75S2584.79 797.28 2665.42 797.28L2660 1000 L-100 1000 Z;M-100 819.83C-15.45 842.17 -17.39 815.97 62.67 815.97S146.59 845.28 225.34 845.28S307.88 808.49 388.02 808.49S474.97 804.8 550.69 804.8S637.84 807.46 713.36 807.46S798.17 817.93 876.03 817.93S961.88 830.95 1038.7 830.95S1122.65 856 1201.38 856S1283.86 791.13 1364.05 791.13S1449.18 804.82 1526.72 804.82S1613.18 815.09 1689.39 815.09S1775.81 816.95 1852.06 816.95S1938.7 844.83 2014.73 844.83S2101.58 824.05 2177.41 824.05S2259.02 817.1 2340.08 817.1S2423.91 818.08 2502.75 818.08S2588.36 836.5 2665.42 836.5L2660 1000 L-100 1000 Z;M-100 816.67C-12.12 852.78 -13.28 857.29 62.67 857.29S148.24 848.43 225.34 848.43S311.21 837.23 388.02 837.23S475.45 799.61 550.69 799.61S637.03 797.45 713.36 797.45S795.66 821.93 876.03 821.93S957.64 821.58 1038.7 821.58S1121.58 813.16 1201.38 813.16S1287.19 836.51 1364.05 836.51S1447.32 851.21 1526.72 851.21S1608.18 840.33 1689.39 840.33S1773.91 806.45 1852.06 806.45S1939.2 844.44 2014.73 844.44S2102.02 838.39 2177.41 838.39S2259.17 836.78 2340.08 836.78S2422.09 849.75 2502.75 849.75S2584.79 797.28 2665.42 797.28L2660 1000 L-100 1000 Z"/><animateTransform attributeName="transform" type="translate" dur="6.557377049180328s" begin="-4.808743169398907s" repeatCount="indefinite" values="0;10;0" calcMode="spline" keySplines="0.3 0 0.7 1;0.3 0 0.7 1"/></path><path d="M-100 831.21c87.18 32.76 85.71 14.55 166.27 14.55s84.18 2.27 166.26 2.27 84.63-32.6 166.27-32.6 83.66 57.97 166.26 57.97 87.14-38.72 166.27-38.72 84.73-.82 166.26-.82 86.03-17.02 166.27-17.02 86.03 50.83 166.26 50.83 83.78-18.65 166.27-18.65 88.47 17.67 166.26 17.67 87.02-21.46 166.27-21.46 86.53-25.68 166.26-25.68 83.37 50.26 166.27 50.26 86.3-40.5 166.26-40.5 87.18-.02 166.27-.02 86.17-13.56 166.26-13.56 83.92 19.4 166.27 19.4L2660 1000H-100Z" fill="#c8c8c8"><animate attributeName="d" dur="4.918032786885246s" repeatCount="indefinite" values="M-100 831.21C-12.82 863.97 -14.29 845.76 66.27 845.76S150.45 848.03 232.53 848.03S317.16 815.43 398.8 815.43S482.46 873.4 565.06 873.4S652.2 834.68 731.33 834.68S816.06 833.86 897.59 833.86S983.62 816.84 1063.86 816.84S1149.89 867.67 1230.12 867.67S1313.9 849.02 1396.39 849.02S1484.86 866.69 1562.65 866.69S1649.67 845.23 1728.92 845.23S1815.45 819.55 1895.18 819.55S1978.55 869.81 2061.45 869.81S2147.75 829.31 2227.71 829.31S2314.89 829.29 2393.98 829.29S2480.15 815.73 2560.24 815.73S2644.16 835.13 2726.51 835.13L2660 1000 L-100 1000 Z;M-100 817.46C-13.97 816.1 -11.02 842.69 66.27 842.69S155.34 817.39 232.53 817.39S317.74 816.09 398.8 816.09S486.79 808.36 565.06 808.36S649.24 874.4 731.33 874.4S816.32 838.28 897.59 838.28S980.85 854.23 1063.86 854.23S1147.76 860.53 1230.12 860.53S1315.78 864.22 1396.39 864.22S1483.85 825.65 1562.65 825.65S1649.42 808.04 1728.92 808.04S1816.96 855.8 1895.18 855.8S1984.18 872.58 2061.45 872.58S2149.41 879.59 2227.71 879.59S2316.29 858.27 2393.98 858.27S2478.04 828.03 2560.24 828.03S2646.02 836.85 2726.51 836.85L2660 1000 L-100 1000 Z;M-100 831.21C-12.82 863.97 -14.29 845.76 66.27 845.76S150.45 848.03 232.53 848.03S317.16 815.43 398.8 815.43S482.46 873.4 565.06 873.4S652.2 834.68 731.33 834.68S816.06 833.86 897.59 833.86S983.62 816.84 1063.86 816.84S1149.89 867.67 1230.12 867.67S1313.9 849.02 1396.39 849.02S1484.86 866.69 1562.65 866.69S1649.67 845.23 1728.92 845.23S1815.45 819.55 1895.18 819.55S1978.55 869.81 2061.45 869.81S2147.75 829.31 2227.71 829.31S2314.89 829.29 2393.98 829.29S2480.15 815.73 2560.24 815.73S2644.16 835.13 2726.51 835.13L2660 1000 L-100 1000 Z"/><animateTransform attributeName="transform" type="translate" dur="4.918032786885246s" begin="-3.934426229508197s" repeatCount="indefinite" values="0;10;0" calcMode="spline" keySplines="0.3 0 0.7 1;0.3 0 0.7 1"/></path><path d="M-100 863.12c89.74-31.86 85.86-20.95 170.02-20.95s91.11 37.15 170.02 37.15 88.5-7.91 170.02-7.91 90.49 21.84 170.02 21.84 90.82-36.92 170.02-36.92 87.27-23.65 170.02-23.65 86.71 17.83 170.02 17.83 87.72 43.64 170.02 43.64 88.59-30.05 170.02-30.05 90.71 21.68 170.03 21.68 85.13-9.3 170.02-9.3 90.61-12.45 170.02-12.45 88.7-4.08 170.02-4.08 91.65-24.83 170.02-24.83 89.45-.56 170.02-.56 85.99 8.96 170.02 8.96 90.82.32 170.02.32L2660 1000H-100Z" fill="#d8d8d8"><animate attributeName="d" dur="3.278688524590164s" repeatCount="indefinite" values="M-100 863.12C-10.26 831.26 -14.14 842.17 70.02 842.17S161.13 879.32 240.04 879.32S328.54 871.41 410.06 871.41S500.55 893.25 580.08 893.25S670.9 856.33 750.1 856.33S837.37 832.68 920.12 832.68S1006.83 850.51 1090.14 850.51S1177.86 894.15 1260.16 894.15S1348.75 864.1 1430.18 864.1S1520.89 885.78 1600.21 885.78S1685.34 876.48 1770.23 876.48S1860.84 864.03 1940.25 864.03S2028.95 859.95 2110.27 859.95S2201.92 835.12 2280.29 835.12S2369.74 834.56 2450.31 834.56S2536.3 843.52 2620.33 843.52S2711.15 843.84 2790.35 843.84L2660 1000 L-100 1000 Z;M-100 879.38C-9.33 856.42 -13.22 843.95 70.02 843.95S159.81 895.38 240.04 895.38S326.83 896.35 410.06 896.35S496.83 873.12 580.08 873.12S669.66 865.83 750.1 865.83S836.96 865.4 920.12 865.4S1007.51 830.05 1090.14 830.05S1175.33 828.67 1260.16 828.67S1350.97 871.42 1430.18 871.42S1516.33 837.68 1600.21 837.68S1686.22 849.08 1770.23 849.08S1855.77 843.07 1940.25 843.07S2025.4 839.28 2110.27 839.28S2197.52 873.34 2280.29 873.34S2369.94 834.8 2450.31 834.8S2538.44 878.44 2620.33 878.44S2705.64 898.34 2790.35 898.34L2660 1000 L-100 1000 Z;M-100 863.12C-10.26 831.26 -14.14 842.17 70.02 842.17S161.13 879.32 240.04 879.32S328.54 871.41 410.06 871.41S500.55 893.25 580.08 893.25S670.9 856.33 750.1 856.33S837.37 832.68 920.12 832.68S1006.83 850.51 1090.14 850.51S1177.86 894.15 1260.16 894.15S1348.75 864.1 1430.18 864.1S1520.89 885.78 1600.21 885.78S1685.34 876.48 1770.23 876.48S1860.84 864.03 1940.25 864.03S2028.95 859.95 2110.27 859.95S2201.92 835.12 2280.29 835.12S2369.74 834.56 2450.31 834.56S2536.3 843.52 2620.33 843.52S2711.15 843.84 2790.35 843.84L2660 1000 L-100 1000 Z"/><animateTransform attributeName="transform" type="translate" dur="3.278688524590164s" begin="-2.841530054644809s" repeatCount="indefinite" values="0;10;0" calcMode="spline" keySplines="0.3 0 0.7 1;0.3 0 0.7 1"/></path><path d="M-100 892.27c90.64 18.57 88.95-9.93 173.95-9.93s91.32-6.09 173.95-6.09 87.38 10.18 173.95 10.18 87.82 24.9 173.95 24.9 89.4-2.45 173.95-2.45 87.01-26.59 173.95-26.59 86.98-20.65 173.95-20.65 91.08 42.24 173.95 42.24 87.18 1.37 173.95 1.37 92.09-4.63 173.95-4.63 88.28-34.18 173.95-34.18 88.34 33.67 173.94 33.67 93.4-32.65 173.95-32.65 89.03 3.92 173.95 3.92 89.6 15.03 173.95 15.03 87.3 10.34 173.95 10.34L2660 1000H-100Z" fill="#e8e8e8"><animate attributeName="d" dur="1.639344262295082s" repeatCount="indefinite" values="M-100 892.27C-9.36 910.84 -11.05 882.34 73.95 882.34S165.27 876.25 247.9 876.25S335.28 886.43 421.85 886.43S509.67 911.33 595.8 911.33S685.2 908.88 769.75 908.88S856.76 882.29 943.7 882.29S1030.68 861.64 1117.65 861.64S1208.73 903.88 1291.6 903.88S1378.78 905.25 1465.55 905.25S1557.64 900.62 1639.5 900.62S1727.78 866.44 1813.45 866.44S1901.79 900.11 1987.39 900.11S2080.79 867.46 2161.34 867.46S2250.37 871.38 2335.29 871.38S2424.89 886.41 2509.24 886.41S2596.54 896.75 2683.19 896.75L2660 1000 L-100 1000 Z;M-100 886.59C-11.91 850.24 -6.74 851.62 73.95 851.62S162.14 902.25 247.9 902.25S338.85 876.23 421.85 876.23S509.42 875.68 595.8 875.68S689.21 850.93 769.75 850.93S863.28 855.02 943.7 855.02S1031.05 896.65 1117.65 896.65S1209.3 895.27 1291.6 895.27S1381.82 866.19 1465.55 866.19S1554.81 869.85 1639.5 869.85S1726.75 908.64 1813.45 908.64S1907.05 861.71 1987.39 861.71S2076.84 879.25 2161.34 879.25S2249.96 866.4 2335.29 866.4S2427.65 915.5 2509.24 915.5S2602.52 906.59 2683.19 906.59L2660 1000 L-100 1000 Z;M-100 892.27C-9.36 910.84 -11.05 882.34 73.95 882.34S165.27 876.25 247.9 876.25S335.28 886.43 421.85 886.43S509.67 911.33 595.8 911.33S685.2 908.88 769.75 908.88S856.76 882.29 943.7 882.29S1030.68 861.64 1117.65 861.64S1208.73 903.88 1291.6 903.88S1378.78 905.25 1465.55 905.25S1557.64 900.62 1639.5 900.62S1727.78 866.44 1813.45 866.44S1901.79 900.11 1987.39 900.11S2080.79 867.46 2161.34 867.46S2250.37 871.38 2335.29 871.38S2424.89 886.41 2509.24 886.41S2596.54 896.75 2683.19 896.75L2660 1000 L-100 1000 Z"/><animateTransform attributeName="transform" type="translate" dur="1.639344262295082s" begin="-1.530054644808743s" repeatCount="indefinite" values="0;10;0" calcMode="spline" keySplines="0.3 0 0.7 1;0.3 0 0.7 1"/></path></svg>